<svg width="32" height="32" viewBox="0 0 32 32" fill="none" xmlns="http://www.w3.org/2000/svg">
<path d="M7.83203 9.33337L9.8787 18.9947C10.16 20.3254 11.3987 21.2307 12.7534 21.096L21.8414 20.1867C22.9614 20.0747 23.8894 19.272 24.1627 18.18L25.96 10.9907C26.1707 10.148 25.5347 9.33337 24.6667 9.33337H13.5827" stroke="#2E1066" stroke-width="2" stroke-linecap="round" stroke-linejoin="round"/>
<path d="M7.83203 9.33337L9.8787 18.9947C10.16 20.3254 11.3987 21.2307 12.7534 21.096L21.8414 20.1867C22.9614 20.0747 23.8894 19.272 24.1627 18.18L25.96 10.9907C26.1707 10.148 25.5347 9.33337 24.6667 9.33337H13.5827" stroke="#410F9E" stroke-width="2" stroke-linecap="round" stroke-linejoin="round"/>
<path d="M7.83203 9.33337L9.8787 18.9947C10.16 20.3254 11.3987 21.2307 12.7534 21.096L21.8414 20.1867C22.9614 20.0747 23.8894 19.272 24.1627 18.18L25.96 10.9907C26.1707 10.148 25.5347 9.33337 24.6667 9.33337H13.5827" stroke="#453888" stroke-width="2" stroke-linecap="round" stroke-linejoin="round"/>
<path d="M7.83203 9.33337L9.8787 18.9947C10.16 20.3254 11.3987 21.2307 12.7534 21.096L21.8414 20.1867C22.9614 20.0747 23.8894 19.272 24.1627 18.18L25.96 10.9907C26.1707 10.148 25.5347 9.33337 24.6667 9.33337H13.5827" stroke="#5946D7" stroke-width="2" stroke-linecap="round" stroke-linejoin="round"/>
<path d="M7.83203 9.33337L9.8787 18.9947C10.16 20.3254 11.3987 21.2307 12.7534 21.096L21.8414 20.1867C22.9614 20.0747 23.8894 19.272 24.1627 18.18L25.96 10.9907C26.1707 10.148 25.5347 9.33337 24.6667 9.33337H13.5827" stroke="#6B59CC" stroke-width="2" stroke-linecap="round" stroke-linejoin="round"/>
<path d="M7.83184 9.33337L6.96517 5.33337H4.6665" stroke="#2E1066" stroke-width="2" stroke-linecap="round" stroke-linejoin="round"/>
<path d="M7.83184 9.33337L6.96517 5.33337H4.6665" stroke="#410F9E" stroke-width="2" stroke-linecap="round" stroke-linejoin="round"/>
<path d="M7.83184 9.33337L6.96517 5.33337H4.6665" stroke="#453888" stroke-width="2" stroke-linecap="round" stroke-linejoin="round"/>
<path d="M7.83184 9.33337L6.96517 5.33337H4.6665" stroke="#5946D7" stroke-width="2" stroke-linecap="round" stroke-linejoin="round"/>
<path d="M7.83184 9.33337L6.96517 5.33337H4.6665" stroke="#6B59CC" stroke-width="2" stroke-linecap="round" stroke-linejoin="round"/>
<path d="M22.812 25.6893C22.5426 25.6893 22.324 25.908 22.3266 26.1773C22.3266 26.4466 22.5453 26.6653 22.8146 26.6653C23.084 26.6653 23.3026 26.4466 23.3026 26.1773C23.3013 25.908 23.0826 25.6893 22.812 25.6893" stroke="#2E1066" stroke-width="2" stroke-linecap="round" stroke-linejoin="round"/>
<path d="M22.812 25.6893C22.5426 25.6893 22.324 25.908 22.3266 26.1773C22.3266 26.4466 22.5453 26.6653 22.8146 26.6653C23.084 26.6653 23.3026 26.4466 23.3026 26.1773C23.3013 25.908 23.0826 25.6893 22.812 25.6893" stroke="#410F9E" stroke-width="2" stroke-linecap="round" stroke-linejoin="round"/>
<path d="M22.812 25.6893C22.5426 25.6893 22.324 25.908 22.3266 26.1773C22.3266 26.4466 22.5453 26.6653 22.8146 26.6653C23.084 26.6653 23.3026 26.4466 23.3026 26.1773C23.3013 25.908 23.0826 25.6893 22.812 25.6893" stroke="#453888" stroke-width="2" stroke-linecap="round" stroke-linejoin="round"/>
<path d="M22.812 25.6893C22.5426 25.6893 22.324 25.908 22.3266 26.1773C22.3266 26.4466 22.5453 26.6653 22.8146 26.6653C23.084 26.6653 23.3026 26.4466 23.3026 26.1773C23.3013 25.908 23.0826 25.6893 22.812 25.6893" stroke="#5946D7" stroke-width="2" stroke-linecap="round" stroke-linejoin="round"/>
<path d="M22.812 25.6893C22.5426 25.6893 22.324 25.908 22.3266 26.1773C22.3266 26.4466 22.5453 26.6653 22.8146 26.6653C23.084 26.6653 23.3026 26.4466 23.3026 26.1773C23.3013 25.908 23.0826 25.6893 22.812 25.6893" stroke="#6B59CC" stroke-width="2" stroke-linecap="round" stroke-linejoin="round"/>
<path d="M11.5958 25.6894C11.3265 25.6894 11.1078 25.908 11.1105 26.1774C11.1078 26.448 11.3278 26.6667 11.5972 26.6667C11.8665 26.6667 12.0852 26.448 12.0852 26.1787C12.0852 25.908 11.8665 25.6894 11.5958 25.6894" stroke="#2E1066" stroke-width="2" stroke-linecap="round" stroke-linejoin="round"/>
<path d="M11.5958 25.6894C11.3265 25.6894 11.1078 25.908 11.1105 26.1774C11.1078 26.448 11.3278 26.6667 11.5972 26.6667C11.8665 26.6667 12.0852 26.448 12.0852 26.1787C12.0852 25.908 11.8665 25.6894 11.5958 25.6894" stroke="#410F9E" stroke-width="2" stroke-linecap="round" stroke-linejoin="round"/>
<path d="M11.5958 25.6894C11.3265 25.6894 11.1078 25.908 11.1105 26.1774C11.1078 26.448 11.3278 26.6667 11.5972 26.6667C11.8665 26.6667 12.0852 26.448 12.0852 26.1787C12.0852 25.908 11.8665 25.6894 11.5958 25.6894" stroke="#453888" stroke-width="2" stroke-linecap="round" stroke-linejoin="round"/>
<path d="M11.5958 25.6894C11.3265 25.6894 11.1078 25.908 11.1105 26.1774C11.1078 26.448 11.3278 26.6667 11.5972 26.6667C11.8665 26.6667 12.0852 26.448 12.0852 26.1787C12.0852 25.908 11.8665 25.6894 11.5958 25.6894" stroke="#5946D7" stroke-width="2" stroke-linecap="round" stroke-linejoin="round"/>
<path d="M11.5958 25.6894C11.3265 25.6894 11.1078 25.908 11.1105 26.1774C11.1078 26.448 11.3278 26.6667 11.5972 26.6667C11.8665 26.6667 12.0852 26.448 12.0852 26.1787C12.0852 25.908 11.8665 25.6894 11.5958 25.6894" stroke="#6B59CC" stroke-width="2" stroke-linecap="round" stroke-linejoin="round"/>
</svg>
