<svg width="48" height="48" viewBox="0 0 48 48" fill="none" xmlns="http://www.w3.org/2000/svg">
<path d="M24 20V10" stroke="#2E1066" stroke-width="2" stroke-linecap="round" stroke-linejoin="round"/>
<path d="M24 20V10" stroke="#410F9E" stroke-width="2" stroke-linecap="round" stroke-linejoin="round"/>
<path d="M24 20V10" stroke="#453888" stroke-width="2" stroke-linecap="round" stroke-linejoin="round"/>
<path d="M24 20V10" stroke="#5946D7" stroke-width="2" stroke-linecap="round" stroke-linejoin="round"/>
<path d="M24 38V28" stroke="#2E1066" stroke-width="2" stroke-linecap="round" stroke-linejoin="round"/>
<path d="M24 38V28" stroke="#410F9E" stroke-width="2" stroke-linecap="round" stroke-linejoin="round"/>
<path d="M24 38V28" stroke="#453888" stroke-width="2" stroke-linecap="round" stroke-linejoin="round"/>
<path d="M24 38V28" stroke="#5946D7" stroke-width="2" stroke-linecap="round" stroke-linejoin="round"/>
<path d="M26.8198 21.18L33.8998 14.1" stroke="#2E1066" stroke-width="2" stroke-linecap="round" stroke-linejoin="round"/>
<path d="M26.8198 21.18L33.8998 14.1" stroke="#410F9E" stroke-width="2" stroke-linecap="round" stroke-linejoin="round"/>
<path d="M26.8198 21.18L33.8998 14.1" stroke="#453888" stroke-width="2" stroke-linecap="round" stroke-linejoin="round"/>
<path d="M26.8198 21.18L33.8998 14.1" stroke="#5946D7" stroke-width="2" stroke-linecap="round" stroke-linejoin="round"/>
<path d="M14.1001 33.9L21.1801 26.82" stroke="#2E1066" stroke-width="2" stroke-linecap="round" stroke-linejoin="round"/>
<path d="M14.1001 33.9L21.1801 26.82" stroke="#410F9E" stroke-width="2" stroke-linecap="round" stroke-linejoin="round"/>
<path d="M14.1001 33.9L21.1801 26.82" stroke="#453888" stroke-width="2" stroke-linecap="round" stroke-linejoin="round"/>
<path d="M14.1001 33.9L21.1801 26.82" stroke="#5946D7" stroke-width="2" stroke-linecap="round" stroke-linejoin="round"/>
<path d="M28 24H38" stroke="#2E1066" stroke-width="2" stroke-linecap="round" stroke-linejoin="round"/>
<path d="M28 24H38" stroke="#410F9E" stroke-width="2" stroke-linecap="round" stroke-linejoin="round"/>
<path d="M28 24H38" stroke="#453888" stroke-width="2" stroke-linecap="round" stroke-linejoin="round"/>
<path d="M28 24H38" stroke="#5946D7" stroke-width="2" stroke-linecap="round" stroke-linejoin="round"/>
<path d="M10 24H20" stroke="#2E1066" stroke-width="2" stroke-linecap="round" stroke-linejoin="round"/>
<path d="M10 24H20" stroke="#410F9E" stroke-width="2" stroke-linecap="round" stroke-linejoin="round"/>
<path d="M10 24H20" stroke="#453888" stroke-width="2" stroke-linecap="round" stroke-linejoin="round"/>
<path d="M10 24H20" stroke="#5946D7" stroke-width="2" stroke-linecap="round" stroke-linejoin="round"/>
<path d="M26.8198 26.82L33.8998 33.9" stroke="#2E1066" stroke-width="2" stroke-linecap="round" stroke-linejoin="round"/>
<path d="M26.8198 26.82L33.8998 33.9" stroke="#410F9E" stroke-width="2" stroke-linecap="round" stroke-linejoin="round"/>
<path d="M26.8198 26.82L33.8998 33.9" stroke="#453888" stroke-width="2" stroke-linecap="round" stroke-linejoin="round"/>
<path d="M26.8198 26.82L33.8998 33.9" stroke="#5946D7" stroke-width="2" stroke-linecap="round" stroke-linejoin="round"/>
<path d="M14.1001 14.1L21.1801 21.18" stroke="#2E1066" stroke-width="2" stroke-linecap="round" stroke-linejoin="round"/>
<path d="M14.1001 14.1L21.1801 21.18" stroke="#410F9E" stroke-width="2" stroke-linecap="round" stroke-linejoin="round"/>
<path d="M14.1001 14.1L21.1801 21.18" stroke="#453888" stroke-width="2" stroke-linecap="round" stroke-linejoin="round"/>
<path d="M14.1001 14.1L21.1801 21.18" stroke="#5946D7" stroke-width="2" stroke-linecap="round" stroke-linejoin="round"/>
<path d="M38.1421 9.85786C45.9525 17.6683 45.9525 30.3317 38.1421 38.1421C30.3316 45.9525 17.6683 45.9525 9.85786 38.1421C2.04738 30.3316 2.04738 17.6683 9.85786 9.85786C17.6683 2.04738 30.3317 2.04738 38.1421 9.85786" stroke="#2E1066" stroke-width="2" stroke-linecap="round" stroke-linejoin="round"/>
<path d="M38.1421 9.85786C45.9525 17.6683 45.9525 30.3317 38.1421 38.1421C30.3316 45.9525 17.6683 45.9525 9.85786 38.1421C2.04738 30.3316 2.04738 17.6683 9.85786 9.85786C17.6683 2.04738 30.3317 2.04738 38.1421 9.85786" stroke="#410F9E" stroke-width="2" stroke-linecap="round" stroke-linejoin="round"/>
<path d="M38.1421 9.85786C45.9525 17.6683 45.9525 30.3317 38.1421 38.1421C30.3316 45.9525 17.6683 45.9525 9.85786 38.1421C2.04738 30.3316 2.04738 17.6683 9.85786 9.85786C17.6683 2.04738 30.3317 2.04738 38.1421 9.85786" stroke="#453888" stroke-width="2" stroke-linecap="round" stroke-linejoin="round"/>
<path d="M38.1421 9.85786C45.9525 17.6683 45.9525 30.3317 38.1421 38.1421C30.3316 45.9525 17.6683 45.9525 9.85786 38.1421C2.04738 30.3316 2.04738 17.6683 9.85786 9.85786C17.6683 2.04738 30.3317 2.04738 38.1421 9.85786" stroke="#5946D7" stroke-width="2" stroke-linecap="round" stroke-linejoin="round"/>
<path d="M33.8995 14.1005C39.3668 19.5678 39.3668 28.4321 33.8995 33.8995C28.4321 39.3668 19.5678 39.3668 14.1005 33.8995C8.63316 28.4321 8.63316 19.5678 14.1005 14.1005C19.5678 8.63316 28.4321 8.63316 33.8995 14.1005" stroke="#2E1066" stroke-width="2" stroke-linecap="round" stroke-linejoin="round"/>
<path d="M33.8995 14.1005C39.3668 19.5678 39.3668 28.4321 33.8995 33.8995C28.4321 39.3668 19.5678 39.3668 14.1005 33.8995C8.63316 28.4321 8.63316 19.5678 14.1005 14.1005C19.5678 8.63316 28.4321 8.63316 33.8995 14.1005" stroke="#410F9E" stroke-width="2" stroke-linecap="round" stroke-linejoin="round"/>
<path d="M33.8995 14.1005C39.3668 19.5678 39.3668 28.4321 33.8995 33.8995C28.4321 39.3668 19.5678 39.3668 14.1005 33.8995C8.63316 28.4321 8.63316 19.5678 14.1005 14.1005C19.5678 8.63316 28.4321 8.63316 33.8995 14.1005" stroke="#453888" stroke-width="2" stroke-linecap="round" stroke-linejoin="round"/>
<path d="M33.8995 14.1005C39.3668 19.5678 39.3668 28.4321 33.8995 33.8995C28.4321 39.3668 19.5678 39.3668 14.1005 33.8995C8.63316 28.4321 8.63316 19.5678 14.1005 14.1005C19.5678 8.63316 28.4321 8.63316 33.8995 14.1005" stroke="#5946D7" stroke-width="2" stroke-linecap="round" stroke-linejoin="round"/>
<path d="M26.8284 21.1716C28.3905 22.7337 28.3905 25.2664 26.8284 26.8285C25.2663 28.3906 22.7337 28.3906 21.1716 26.8285C19.6095 25.2664 19.6095 22.7337 21.1716 21.1716C22.7337 19.6095 25.2663 19.6095 26.8284 21.1716" stroke="#2E1066" stroke-width="2" stroke-linecap="round" stroke-linejoin="round"/>
<path d="M26.8284 21.1716C28.3905 22.7337 28.3905 25.2664 26.8284 26.8285C25.2663 28.3906 22.7337 28.3906 21.1716 26.8285C19.6095 25.2664 19.6095 22.7337 21.1716 21.1716C22.7337 19.6095 25.2663 19.6095 26.8284 21.1716" stroke="#410F9E" stroke-width="2" stroke-linecap="round" stroke-linejoin="round"/>
<path d="M26.8284 21.1716C28.3905 22.7337 28.3905 25.2664 26.8284 26.8285C25.2663 28.3906 22.7337 28.3906 21.1716 26.8285C19.6095 25.2664 19.6095 22.7337 21.1716 21.1716C22.7337 19.6095 25.2663 19.6095 26.8284 21.1716" stroke="#453888" stroke-width="2" stroke-linecap="round" stroke-linejoin="round"/>
<path d="M26.8284 21.1716C28.3905 22.7337 28.3905 25.2664 26.8284 26.8285C25.2663 28.3906 22.7337 28.3906 21.1716 26.8285C19.6095 25.2664 19.6095 22.7337 21.1716 21.1716C22.7337 19.6095 25.2663 19.6095 26.8284 21.1716" stroke="#5946D7" stroke-width="2" stroke-linecap="round" stroke-linejoin="round"/>
</svg>
