<svg width="48" height="48" viewBox="0 0 48 48" fill="none" xmlns="http://www.w3.org/2000/svg">
<path d="M34 14V10C34 8.896 34.896 8 36 8H40C41.104 8 42 8.896 42 10V14" stroke="#2E1066" stroke-width="2" stroke-linecap="round" stroke-linejoin="round"/>
<path d="M34 14V10C34 8.896 34.896 8 36 8H40C41.104 8 42 8.896 42 10V14" stroke="#410F9E" stroke-width="2" stroke-linecap="round" stroke-linejoin="round"/>
<path d="M34 14V10C34 8.896 34.896 8 36 8H40C41.104 8 42 8.896 42 10V14" stroke="#453888" stroke-width="2" stroke-linecap="round" stroke-linejoin="round"/>
<path d="M34 14V10C34 8.896 34.896 8 36 8H40C41.104 8 42 8.896 42 10V14" stroke="#5946D7" stroke-width="2" stroke-linecap="round" stroke-linejoin="round"/>
<path d="M34 23V29" stroke="#2E1066" stroke-width="2" stroke-linecap="round" stroke-linejoin="round"/>
<path d="M34 23V29" stroke="#410F9E" stroke-width="2" stroke-linecap="round" stroke-linejoin="round"/>
<path d="M34 23V29" stroke="#453888" stroke-width="2" stroke-linecap="round" stroke-linejoin="round"/>
<path d="M34 23V29" stroke="#5946D7" stroke-width="2" stroke-linecap="round" stroke-linejoin="round"/>
<path d="M37 26H31" stroke="#2E1066" stroke-width="2" stroke-linecap="round" stroke-linejoin="round"/>
<path d="M37 26H31" stroke="#410F9E" stroke-width="2" stroke-linecap="round" stroke-linejoin="round"/>
<path d="M37 26H31" stroke="#453888" stroke-width="2" stroke-linecap="round" stroke-linejoin="round"/>
<path d="M37 26H31" stroke="#5946D7" stroke-width="2" stroke-linecap="round" stroke-linejoin="round"/>
<path d="M17 26H11" stroke="#2E1066" stroke-width="2" stroke-linecap="round" stroke-linejoin="round"/>
<path d="M17 26H11" stroke="#410F9E" stroke-width="2" stroke-linecap="round" stroke-linejoin="round"/>
<path d="M17 26H11" stroke="#453888" stroke-width="2" stroke-linecap="round" stroke-linejoin="round"/>
<path d="M17 26H11" stroke="#5946D7" stroke-width="2" stroke-linecap="round" stroke-linejoin="round"/>
<path d="M6 14V10C6 8.896 6.896 8 8 8H12C13.104 8 14 8.896 14 10V14" stroke="#2E1066" stroke-width="2" stroke-linecap="round" stroke-linejoin="round"/>
<path d="M6 14V10C6 8.896 6.896 8 8 8H12C13.104 8 14 8.896 14 10V14" stroke="#410F9E" stroke-width="2" stroke-linecap="round" stroke-linejoin="round"/>
<path d="M6 14V10C6 8.896 6.896 8 8 8H12C13.104 8 14 8.896 14 10V14" stroke="#453888" stroke-width="2" stroke-linecap="round" stroke-linejoin="round"/>
<path d="M6 14V10C6 8.896 6.896 8 8 8H12C13.104 8 14 8.896 14 10V14" stroke="#5946D7" stroke-width="2" stroke-linecap="round" stroke-linejoin="round"/>
<path fill-rule="evenodd" clip-rule="evenodd" d="M34 14H42C43.104 14 44 14.896 44 16V36C44 38.21 42.21 40 40 40H8C5.79 40 4 38.21 4 36V16C4 14.896 4.896 14 6 14H14L17.414 10.586C17.79 10.21 18.298 10 18.828 10H29.172C29.702 10 30.212 10.21 30.586 10.586L34 14V14Z" stroke="#2E1066" stroke-width="2" stroke-linecap="round" stroke-linejoin="round"/>
<path fill-rule="evenodd" clip-rule="evenodd" d="M34 14H42C43.104 14 44 14.896 44 16V36C44 38.21 42.21 40 40 40H8C5.79 40 4 38.21 4 36V16C4 14.896 4.896 14 6 14H14L17.414 10.586C17.79 10.21 18.298 10 18.828 10H29.172C29.702 10 30.212 10.21 30.586 10.586L34 14V14Z" stroke="#410F9E" stroke-width="2" stroke-linecap="round" stroke-linejoin="round"/>
<path fill-rule="evenodd" clip-rule="evenodd" d="M34 14H42C43.104 14 44 14.896 44 16V36C44 38.21 42.21 40 40 40H8C5.79 40 4 38.21 4 36V16C4 14.896 4.896 14 6 14H14L17.414 10.586C17.79 10.21 18.298 10 18.828 10H29.172C29.702 10 30.212 10.21 30.586 10.586L34 14V14Z" stroke="#453888" stroke-width="2" stroke-linecap="round" stroke-linejoin="round"/>
<path fill-rule="evenodd" clip-rule="evenodd" d="M34 14H42C43.104 14 44 14.896 44 16V36C44 38.21 42.21 40 40 40H8C5.79 40 4 38.21 4 36V16C4 14.896 4.896 14 6 14H14L17.414 10.586C17.79 10.21 18.298 10 18.828 10H29.172C29.702 10 30.212 10.21 30.586 10.586L34 14V14Z" stroke="#5946D7" stroke-width="2" stroke-linecap="round" stroke-linejoin="round"/>
</svg>
