<svg width="20" height="20" viewBox="0 0 20 20" fill="none" xmlns="http://www.w3.org/2000/svg">
<path fill-rule="evenodd" clip-rule="evenodd" d="M1.97939 4.7246C2.22121 3.32069 3.33711 2.28869 4.74548 2.0744C6.09493 1.86907 7.94616 1.66663 9.99984 1.66663C12.0535 1.66663 13.9047 1.86907 15.2542 2.0744C16.6626 2.28869 17.7785 3.32069 18.0203 4.7246C18.1888 5.70306 18.3332 6.946 18.3332 8.33329C18.3332 9.72058 18.1888 10.9635 18.0203 11.942C17.7785 13.3459 16.6626 14.3779 15.2542 14.5922C14.0197 14.78 12.3652 14.9655 10.5199 14.9957L5.42378 18.007C4.86826 18.3353 4.1665 17.9348 4.1665 17.2896V14.4533C3.03864 14.0782 2.18697 13.1471 1.97939 11.942C1.81085 10.9635 1.6665 9.72058 1.6665 8.33329C1.6665 6.946 1.81085 5.70306 1.97939 4.7246ZM4.99984 6.66663C4.99984 6.20639 5.37293 5.83329 5.83317 5.83329H14.1665C14.6267 5.83329 14.9998 6.20639 14.9998 6.66663C14.9998 7.12686 14.6267 7.49996 14.1665 7.49996H5.83317C5.37293 7.49996 4.99984 7.12686 4.99984 6.66663ZM4.99984 9.99996C4.99984 9.53972 5.37293 9.16663 5.83317 9.16663H9.1665C9.62674 9.16663 9.99984 9.53972 9.99984 9.99996C9.99984 10.4602 9.62674 10.8333 9.1665 10.8333H5.83317C5.37293 10.8333 4.99984 10.4602 4.99984 9.99996Z" fill="white"/>
</svg>
