<svg width="24" height="24" viewBox="0 0 24 24" fill="none" xmlns="http://www.w3.org/2000/svg">
<g opacity="0.5">
<path fill-rule="evenodd" clip-rule="evenodd" d="M12 13V13C10.343 13 9 11.657 9 10V10C9 8.343 10.343 7 12 7V7C13.657 7 15 8.343 15 10V10C15 11.657 13.657 13 12 13Z" stroke="#2E1066" stroke-width="1.5" stroke-linecap="round" stroke-linejoin="round"/>
<path fill-rule="evenodd" clip-rule="evenodd" d="M12 13V13C10.343 13 9 11.657 9 10V10C9 8.343 10.343 7 12 7V7C13.657 7 15 8.343 15 10V10C15 11.657 13.657 13 12 13Z" stroke="#410F9E" stroke-width="1.5" stroke-linecap="round" stroke-linejoin="round"/>
<path fill-rule="evenodd" clip-rule="evenodd" d="M12 13V13C10.343 13 9 11.657 9 10V10C9 8.343 10.343 7 12 7V7C13.657 7 15 8.343 15 10V10C15 11.657 13.657 13 12 13Z" stroke="#453888" stroke-width="1.5" stroke-linecap="round" stroke-linejoin="round"/>
<path fill-rule="evenodd" clip-rule="evenodd" d="M12 13V13C10.343 13 9 11.657 9 10V10C9 8.343 10.343 7 12 7V7C13.657 7 15 8.343 15 10V10C15 11.657 13.657 13 12 13Z" stroke="#5946D7" stroke-width="1.5" stroke-linecap="round" stroke-linejoin="round"/>
<path fill-rule="evenodd" clip-rule="evenodd" d="M12 13V13C10.343 13 9 11.657 9 10V10C9 8.343 10.343 7 12 7V7C13.657 7 15 8.343 15 10V10C15 11.657 13.657 13 12 13Z" stroke="#6B59CC" stroke-width="1.5" stroke-linecap="round" stroke-linejoin="round"/>
</g>
<path fill-rule="evenodd" clip-rule="evenodd" d="M12 21C12 21 5 15.25 5 10C5 6.134 8.134 3 12 3C15.866 3 19 6.134 19 10C19 15.25 12 21 12 21Z" stroke="#2E1066" stroke-width="1.5" stroke-linecap="round" stroke-linejoin="round"/>
<path fill-rule="evenodd" clip-rule="evenodd" d="M12 21C12 21 5 15.25 5 10C5 6.134 8.134 3 12 3C15.866 3 19 6.134 19 10C19 15.25 12 21 12 21Z" stroke="#410F9E" stroke-width="1.5" stroke-linecap="round" stroke-linejoin="round"/>
<path fill-rule="evenodd" clip-rule="evenodd" d="M12 21C12 21 5 15.25 5 10C5 6.134 8.134 3 12 3C15.866 3 19 6.134 19 10C19 15.25 12 21 12 21Z" stroke="#453888" stroke-width="1.5" stroke-linecap="round" stroke-linejoin="round"/>
<path fill-rule="evenodd" clip-rule="evenodd" d="M12 21C12 21 5 15.25 5 10C5 6.134 8.134 3 12 3C15.866 3 19 6.134 19 10C19 15.25 12 21 12 21Z" stroke="#5946D7" stroke-width="1.5" stroke-linecap="round" stroke-linejoin="round"/>
<path fill-rule="evenodd" clip-rule="evenodd" d="M12 21C12 21 5 15.25 5 10C5 6.134 8.134 3 12 3C15.866 3 19 6.134 19 10C19 15.25 12 21 12 21Z" stroke="#6B59CC" stroke-width="1.5" stroke-linecap="round" stroke-linejoin="round"/>
</svg>
