<svg width="206" height="40" viewBox="0 0 206 40" fill="none" xmlns="http://www.w3.org/2000/svg">
<path d="M63.5156 12.2812C61.3802 12.2812 59.474 13.1198 57.7969 14.7969C56.1302 16.474 55.2969 18.401 55.2969 20.5781C55.2969 22.4115 55.9062 23.9479 57.125 25.1875C58.3542 26.4167 59.9323 27.0312 61.8594 27.0312C63.974 27.0312 65.8698 26.2135 67.5469 24.5781C69.2344 22.9323 70.0781 20.9792 70.0781 18.7188C70.0781 16.8854 69.4583 15.3542 68.2188 14.125C66.9792 12.8958 65.4115 12.2812 63.5156 12.2812ZM50.2656 20.8594C50.2656 17.4844 51.6302 14.5 54.3594 11.9062C57.099 9.30208 60.2604 8 63.8438 8C67.1458 8 69.849 9.02083 71.9531 11.0625C74.0573 13.0938 75.1094 15.5573 75.1094 18.4531C75.1094 20.7135 74.4792 22.8438 73.2188 24.8438C71.9583 26.8333 70.2865 28.4167 68.2031 29.5938C66.1302 30.7708 63.9271 31.3594 61.5938 31.3594C58.2917 31.3594 55.5781 30.3438 53.4531 28.3125C51.3281 26.2708 50.2656 23.7865 50.2656 20.8594Z" fill="#2E1066"/>
<path d="M63.5156 12.2812C61.3802 12.2812 59.474 13.1198 57.7969 14.7969C56.1302 16.474 55.2969 18.401 55.2969 20.5781C55.2969 22.4115 55.9062 23.9479 57.125 25.1875C58.3542 26.4167 59.9323 27.0312 61.8594 27.0312C63.974 27.0312 65.8698 26.2135 67.5469 24.5781C69.2344 22.9323 70.0781 20.9792 70.0781 18.7188C70.0781 16.8854 69.4583 15.3542 68.2188 14.125C66.9792 12.8958 65.4115 12.2812 63.5156 12.2812ZM50.2656 20.8594C50.2656 17.4844 51.6302 14.5 54.3594 11.9062C57.099 9.30208 60.2604 8 63.8438 8C67.1458 8 69.849 9.02083 71.9531 11.0625C74.0573 13.0938 75.1094 15.5573 75.1094 18.4531C75.1094 20.7135 74.4792 22.8438 73.2188 24.8438C71.9583 26.8333 70.2865 28.4167 68.2031 29.5938C66.1302 30.7708 63.9271 31.3594 61.5938 31.3594C58.2917 31.3594 55.5781 30.3438 53.4531 28.3125C51.3281 26.2708 50.2656 23.7865 50.2656 20.8594Z" fill="#410F9E"/>
<path d="M63.5156 12.2812C61.3802 12.2812 59.474 13.1198 57.7969 14.7969C56.1302 16.474 55.2969 18.401 55.2969 20.5781C55.2969 22.4115 55.9062 23.9479 57.125 25.1875C58.3542 26.4167 59.9323 27.0312 61.8594 27.0312C63.974 27.0312 65.8698 26.2135 67.5469 24.5781C69.2344 22.9323 70.0781 20.9792 70.0781 18.7188C70.0781 16.8854 69.4583 15.3542 68.2188 14.125C66.9792 12.8958 65.4115 12.2812 63.5156 12.2812ZM50.2656 20.8594C50.2656 17.4844 51.6302 14.5 54.3594 11.9062C57.099 9.30208 60.2604 8 63.8438 8C67.1458 8 69.849 9.02083 71.9531 11.0625C74.0573 13.0938 75.1094 15.5573 75.1094 18.4531C75.1094 20.7135 74.4792 22.8438 73.2188 24.8438C71.9583 26.8333 70.2865 28.4167 68.2031 29.5938C66.1302 30.7708 63.9271 31.3594 61.5938 31.3594C58.2917 31.3594 55.5781 30.3438 53.4531 28.3125C51.3281 26.2708 50.2656 23.7865 50.2656 20.8594Z" fill="#453888"/>
<path d="M63.5156 12.2812C61.3802 12.2812 59.474 13.1198 57.7969 14.7969C56.1302 16.474 55.2969 18.401 55.2969 20.5781C55.2969 22.4115 55.9062 23.9479 57.125 25.1875C58.3542 26.4167 59.9323 27.0312 61.8594 27.0312C63.974 27.0312 65.8698 26.2135 67.5469 24.5781C69.2344 22.9323 70.0781 20.9792 70.0781 18.7188C70.0781 16.8854 69.4583 15.3542 68.2188 14.125C66.9792 12.8958 65.4115 12.2812 63.5156 12.2812ZM50.2656 20.8594C50.2656 17.4844 51.6302 14.5 54.3594 11.9062C57.099 9.30208 60.2604 8 63.8438 8C67.1458 8 69.849 9.02083 71.9531 11.0625C74.0573 13.0938 75.1094 15.5573 75.1094 18.4531C75.1094 20.7135 74.4792 22.8438 73.2188 24.8438C71.9583 26.8333 70.2865 28.4167 68.2031 29.5938C66.1302 30.7708 63.9271 31.3594 61.5938 31.3594C58.2917 31.3594 55.5781 30.3438 53.4531 28.3125C51.3281 26.2708 50.2656 23.7865 50.2656 20.8594Z" fill="#5946D7"/>
<path d="M97.5462 8.46875H102.343L97.6087 30.875H93.6087L85.4212 16.6094L82.4056 30.875H77.6087L82.3431 8.46875H86.3431L94.5462 22.75L97.5462 8.46875Z" fill="#2E1066"/>
<path d="M97.5462 8.46875H102.343L97.6087 30.875H93.6087L85.4212 16.6094L82.4056 30.875H77.6087L82.3431 8.46875H86.3431L94.5462 22.75L97.5462 8.46875Z" fill="#410F9E"/>
<path d="M97.5462 8.46875H102.343L97.6087 30.875H93.6087L85.4212 16.6094L82.4056 30.875H77.6087L82.3431 8.46875H86.3431L94.5462 22.75L97.5462 8.46875Z" fill="#453888"/>
<path d="M97.5462 8.46875H102.343L97.6087 30.875H93.6087L85.4212 16.6094L82.4056 30.875H77.6087L82.3431 8.46875H86.3431L94.5462 22.75L97.5462 8.46875Z" fill="#5946D7"/>
<path d="M109.702 26.5625H121.702L120.796 30.875H103.999L108.733 8.46875H125.217L124.327 12.7969H112.639L111.686 17.2812H120.796L119.874 21.5938H110.749L109.702 26.5625Z" fill="#2E1066"/>
<path d="M109.702 26.5625H121.702L120.796 30.875H103.999L108.733 8.46875H125.217L124.327 12.7969H112.639L111.686 17.2812H120.796L119.874 21.5938H110.749L109.702 26.5625Z" fill="#410F9E"/>
<path d="M109.702 26.5625H121.702L120.796 30.875H103.999L108.733 8.46875H125.217L124.327 12.7969H112.639L111.686 17.2812H120.796L119.874 21.5938H110.749L109.702 26.5625Z" fill="#453888"/>
<path d="M109.702 26.5625H121.702L120.796 30.875H103.999L108.733 8.46875H125.217L124.327 12.7969H112.639L111.686 17.2812H120.796L119.874 21.5938H110.749L109.702 26.5625Z" fill="#5946D7"/>
<path d="M125.92 30.875L130.654 8.46875H140.123C142.019 8.46875 143.613 9.10938 144.904 10.3906C146.206 11.6719 146.857 13.1667 146.857 14.875C146.857 15.9792 146.665 17 146.279 17.9375C145.894 18.8646 145.425 19.5938 144.873 20.125C144.331 20.6562 143.795 21.1042 143.264 21.4688C142.732 21.8333 142.274 22.0781 141.889 22.2031L141.311 22.3906L144.326 30.875H139.326L136.67 23.0312H132.389L130.717 30.875H125.92ZM138.217 18.7188C139.196 18.7188 140.061 18.4219 140.811 17.8281C141.571 17.224 141.951 16.4219 141.951 15.4219C141.951 14.6927 141.732 14.0729 141.295 13.5625C140.857 13.0521 140.279 12.7969 139.561 12.7969H134.561L133.279 18.7188H138.217Z" fill="#2E1066"/>
<path d="M125.92 30.875L130.654 8.46875H140.123C142.019 8.46875 143.613 9.10938 144.904 10.3906C146.206 11.6719 146.857 13.1667 146.857 14.875C146.857 15.9792 146.665 17 146.279 17.9375C145.894 18.8646 145.425 19.5938 144.873 20.125C144.331 20.6562 143.795 21.1042 143.264 21.4688C142.732 21.8333 142.274 22.0781 141.889 22.2031L141.311 22.3906L144.326 30.875H139.326L136.67 23.0312H132.389L130.717 30.875H125.92ZM138.217 18.7188C139.196 18.7188 140.061 18.4219 140.811 17.8281C141.571 17.224 141.951 16.4219 141.951 15.4219C141.951 14.6927 141.732 14.0729 141.295 13.5625C140.857 13.0521 140.279 12.7969 139.561 12.7969H134.561L133.279 18.7188H138.217Z" fill="#410F9E"/>
<path d="M125.92 30.875L130.654 8.46875H140.123C142.019 8.46875 143.613 9.10938 144.904 10.3906C146.206 11.6719 146.857 13.1667 146.857 14.875C146.857 15.9792 146.665 17 146.279 17.9375C145.894 18.8646 145.425 19.5938 144.873 20.125C144.331 20.6562 143.795 21.1042 143.264 21.4688C142.732 21.8333 142.274 22.0781 141.889 22.2031L141.311 22.3906L144.326 30.875H139.326L136.67 23.0312H132.389L130.717 30.875H125.92ZM138.217 18.7188C139.196 18.7188 140.061 18.4219 140.811 17.8281C141.571 17.224 141.951 16.4219 141.951 15.4219C141.951 14.6927 141.732 14.0729 141.295 13.5625C140.857 13.0521 140.279 12.7969 139.561 12.7969H134.561L133.279 18.7188H138.217Z" fill="#453888"/>
<path d="M125.92 30.875L130.654 8.46875H140.123C142.019 8.46875 143.613 9.10938 144.904 10.3906C146.206 11.6719 146.857 13.1667 146.857 14.875C146.857 15.9792 146.665 17 146.279 17.9375C145.894 18.8646 145.425 19.5938 144.873 20.125C144.331 20.6562 143.795 21.1042 143.264 21.4688C142.732 21.8333 142.274 22.0781 141.889 22.2031L141.311 22.3906L144.326 30.875H139.326L136.67 23.0312H132.389L130.717 30.875H125.92ZM138.217 18.7188C139.196 18.7188 140.061 18.4219 140.811 17.8281C141.571 17.224 141.951 16.4219 141.951 15.4219C141.951 14.6927 141.732 14.0729 141.295 13.5625C140.857 13.0521 140.279 12.7969 139.561 12.7969H134.561L133.279 18.7188H138.217Z" fill="#5946D7"/>
<path d="M148.232 29.0156C148.232 28.3594 148.518 27.7604 149.091 27.2188C149.664 26.6667 150.326 26.3906 151.076 26.3906C151.763 26.3906 152.326 26.6042 152.763 27.0312C153.211 27.4583 153.435 27.974 153.435 28.5781C153.435 29.2865 153.149 29.901 152.576 30.4219C152.003 30.9323 151.341 31.1875 150.591 31.1875C149.904 31.1875 149.336 30.9688 148.888 30.5312C148.451 30.0938 148.232 29.5885 148.232 29.0156Z" fill="#2E1066"/>
<path d="M148.232 29.0156C148.232 28.3594 148.518 27.7604 149.091 27.2188C149.664 26.6667 150.326 26.3906 151.076 26.3906C151.763 26.3906 152.326 26.6042 152.763 27.0312C153.211 27.4583 153.435 27.974 153.435 28.5781C153.435 29.2865 153.149 29.901 152.576 30.4219C152.003 30.9323 151.341 31.1875 150.591 31.1875C149.904 31.1875 149.336 30.9688 148.888 30.5312C148.451 30.0938 148.232 29.5885 148.232 29.0156Z" fill="#410F9E"/>
<path d="M148.232 29.0156C148.232 28.3594 148.518 27.7604 149.091 27.2188C149.664 26.6667 150.326 26.3906 151.076 26.3906C151.763 26.3906 152.326 26.6042 152.763 27.0312C153.211 27.4583 153.435 27.974 153.435 28.5781C153.435 29.2865 153.149 29.901 152.576 30.4219C152.003 30.9323 151.341 31.1875 150.591 31.1875C149.904 31.1875 149.336 30.9688 148.888 30.5312C148.451 30.0938 148.232 29.5885 148.232 29.0156Z" fill="#453888"/>
<path d="M148.232 29.0156C148.232 28.3594 148.518 27.7604 149.091 27.2188C149.664 26.6667 150.326 26.3906 151.076 26.3906C151.763 26.3906 152.326 26.6042 152.763 27.0312C153.211 27.4583 153.435 27.974 153.435 28.5781C153.435 29.2865 153.149 29.901 152.576 30.4219C152.003 30.9323 151.341 31.1875 150.591 31.1875C149.904 31.1875 149.336 30.9688 148.888 30.5312C148.451 30.0938 148.232 29.5885 148.232 29.0156Z" fill="#5946D7"/>
<path d="M157.919 30.875L162.653 8.46875H172.122C174.018 8.46875 175.611 9.10938 176.903 10.3906C178.205 11.6719 178.856 13.1667 178.856 14.875C178.856 15.9792 178.664 17 178.278 17.9375C177.893 18.8646 177.424 19.5938 176.872 20.125C176.33 20.6562 175.794 21.1042 175.262 21.4688C174.731 21.8333 174.273 22.0781 173.887 22.2031L173.309 22.3906L176.325 30.875H171.325L168.669 23.0312H164.387L162.716 30.875H157.919ZM170.216 18.7188C171.195 18.7188 172.059 18.4219 172.809 17.8281C173.57 17.224 173.95 16.4219 173.95 15.4219C173.95 14.6927 173.731 14.0729 173.294 13.5625C172.856 13.0521 172.278 12.7969 171.559 12.7969H166.559L165.278 18.7188H170.216Z" fill="#2E1066"/>
<path d="M157.919 30.875L162.653 8.46875H172.122C174.018 8.46875 175.611 9.10938 176.903 10.3906C178.205 11.6719 178.856 13.1667 178.856 14.875C178.856 15.9792 178.664 17 178.278 17.9375C177.893 18.8646 177.424 19.5938 176.872 20.125C176.33 20.6562 175.794 21.1042 175.262 21.4688C174.731 21.8333 174.273 22.0781 173.887 22.2031L173.309 22.3906L176.325 30.875H171.325L168.669 23.0312H164.387L162.716 30.875H157.919ZM170.216 18.7188C171.195 18.7188 172.059 18.4219 172.809 17.8281C173.57 17.224 173.95 16.4219 173.95 15.4219C173.95 14.6927 173.731 14.0729 173.294 13.5625C172.856 13.0521 172.278 12.7969 171.559 12.7969H166.559L165.278 18.7188H170.216Z" fill="#410F9E"/>
<path d="M157.919 30.875L162.653 8.46875H172.122C174.018 8.46875 175.611 9.10938 176.903 10.3906C178.205 11.6719 178.856 13.1667 178.856 14.875C178.856 15.9792 178.664 17 178.278 17.9375C177.893 18.8646 177.424 19.5938 176.872 20.125C176.33 20.6562 175.794 21.1042 175.262 21.4688C174.731 21.8333 174.273 22.0781 173.887 22.2031L173.309 22.3906L176.325 30.875H171.325L168.669 23.0312H164.387L162.716 30.875H157.919ZM170.216 18.7188C171.195 18.7188 172.059 18.4219 172.809 17.8281C173.57 17.224 173.95 16.4219 173.95 15.4219C173.95 14.6927 173.731 14.0729 173.294 13.5625C172.856 13.0521 172.278 12.7969 171.559 12.7969H166.559L165.278 18.7188H170.216Z" fill="#453888"/>
<path d="M157.919 30.875L162.653 8.46875H172.122C174.018 8.46875 175.611 9.10938 176.903 10.3906C178.205 11.6719 178.856 13.1667 178.856 14.875C178.856 15.9792 178.664 17 178.278 17.9375C177.893 18.8646 177.424 19.5938 176.872 20.125C176.33 20.6562 175.794 21.1042 175.262 21.4688C174.731 21.8333 174.273 22.0781 173.887 22.2031L173.309 22.3906L176.325 30.875H171.325L168.669 23.0312H164.387L162.716 30.875H157.919ZM170.216 18.7188C171.195 18.7188 172.059 18.4219 172.809 17.8281C173.57 17.224 173.95 16.4219 173.95 15.4219C173.95 14.6927 173.731 14.0729 173.294 13.5625C172.856 13.0521 172.278 12.7969 171.559 12.7969H166.559L165.278 18.7188H170.216Z" fill="#5946D7"/>
<path d="M191.84 27.0312C193.205 27.0312 194.449 26.5312 195.574 25.5312C196.71 24.5312 197.439 23.2708 197.762 21.75L200.574 8.46875H205.371L202.559 21.75C201.965 24.5417 200.673 26.8438 198.684 28.6562C196.705 30.4583 194.35 31.3594 191.621 31.3594C189.121 31.3594 187.033 30.625 185.356 29.1562C183.689 27.6771 182.856 25.8073 182.856 23.5469C182.856 22.974 182.918 22.375 183.043 21.75L185.856 8.46875H190.652L187.84 21.75C187.757 22.1146 187.715 22.5 187.715 22.9062C187.715 24.125 188.1 25.1198 188.871 25.8906C189.652 26.651 190.642 27.0312 191.84 27.0312Z" fill="#2E1066"/>
<path d="M191.84 27.0312C193.205 27.0312 194.449 26.5312 195.574 25.5312C196.71 24.5312 197.439 23.2708 197.762 21.75L200.574 8.46875H205.371L202.559 21.75C201.965 24.5417 200.673 26.8438 198.684 28.6562C196.705 30.4583 194.35 31.3594 191.621 31.3594C189.121 31.3594 187.033 30.625 185.356 29.1562C183.689 27.6771 182.856 25.8073 182.856 23.5469C182.856 22.974 182.918 22.375 183.043 21.75L185.856 8.46875H190.652L187.84 21.75C187.757 22.1146 187.715 22.5 187.715 22.9062C187.715 24.125 188.1 25.1198 188.871 25.8906C189.652 26.651 190.642 27.0312 191.84 27.0312Z" fill="#410F9E"/>
<path d="M191.84 27.0312C193.205 27.0312 194.449 26.5312 195.574 25.5312C196.71 24.5312 197.439 23.2708 197.762 21.75L200.574 8.46875H205.371L202.559 21.75C201.965 24.5417 200.673 26.8438 198.684 28.6562C196.705 30.4583 194.35 31.3594 191.621 31.3594C189.121 31.3594 187.033 30.625 185.356 29.1562C183.689 27.6771 182.856 25.8073 182.856 23.5469C182.856 22.974 182.918 22.375 183.043 21.75L185.856 8.46875H190.652L187.84 21.75C187.757 22.1146 187.715 22.5 187.715 22.9062C187.715 24.125 188.1 25.1198 188.871 25.8906C189.652 26.651 190.642 27.0312 191.84 27.0312Z" fill="#453888"/>
<path d="M191.84 27.0312C193.205 27.0312 194.449 26.5312 195.574 25.5312C196.71 24.5312 197.439 23.2708 197.762 21.75L200.574 8.46875H205.371L202.559 21.75C201.965 24.5417 200.673 26.8438 198.684 28.6562C196.705 30.4583 194.35 31.3594 191.621 31.3594C189.121 31.3594 187.033 30.625 185.356 29.1562C183.689 27.6771 182.856 25.8073 182.856 23.5469C182.856 22.974 182.918 22.375 183.043 21.75L185.856 8.46875H190.652L187.84 21.75C187.757 22.1146 187.715 22.5 187.715 22.9062C187.715 24.125 188.1 25.1198 188.871 25.8906C189.652 26.651 190.642 27.0312 191.84 27.0312Z" fill="#5946D7"/>
<g clip-path="url(#clip0_4142_17495)">
<g clip-path="url(#clip1_4142_17495)">
<g clip-path="url(#clip2_4142_17495)">
<path d="M21.2443 38.4114L21.2439 38.4084C21.2441 38.4099 21.2443 38.4114 21.2444 38.4128L21.2443 38.4114ZM38.4113 18.7562L38.4098 18.7564L38.4113 18.7562ZM28.758 7.54255L28.7646 7.54908C28.7624 7.5469 28.7602 7.54473 28.758 7.54255ZM32.0184 7.9152L32.7422 8.48469L32.0184 7.9152Z" fill="#2E1066"/>
<path d="M21.2443 38.4114L21.2439 38.4084C21.2441 38.4099 21.2443 38.4114 21.2444 38.4128L21.2443 38.4114ZM38.4113 18.7562L38.4098 18.7564L38.4113 18.7562ZM28.758 7.54255L28.7646 7.54908C28.7624 7.5469 28.7602 7.54473 28.758 7.54255ZM32.0184 7.9152L32.7422 8.48469L32.0184 7.9152Z" fill="#410F9E"/>
<path d="M21.2443 38.4114L21.2439 38.4084C21.2441 38.4099 21.2443 38.4114 21.2444 38.4128L21.2443 38.4114ZM38.4113 18.7562L38.4098 18.7564L38.4113 18.7562ZM28.758 7.54255L28.7646 7.54908C28.7624 7.5469 28.7602 7.54473 28.758 7.54255ZM32.0184 7.9152L32.7422 8.48469L32.0184 7.9152Z" fill="#453888"/>
<path d="M21.2443 38.4114L21.2439 38.4084C21.2441 38.4099 21.2443 38.4114 21.2444 38.4128L21.2443 38.4114ZM38.4113 18.7562L38.4098 18.7564L38.4113 18.7562ZM28.758 7.54255L28.7646 7.54908C28.7624 7.5469 28.7602 7.54473 28.758 7.54255ZM32.0184 7.9152L32.7422 8.48469L32.0184 7.9152Z" fill="#5946D7"/>
<path d="M21.2443 38.4114L21.2439 38.4084C21.2441 38.4099 21.2443 38.4114 21.2444 38.4128L21.2443 38.4114ZM38.4113 18.7562L38.4098 18.7564L38.4113 18.7562ZM28.758 7.54255L28.7646 7.54908C28.7624 7.5469 28.7602 7.54473 28.758 7.54255ZM32.0184 7.9152L32.7422 8.48469L32.0184 7.9152Z" stroke="#2E1066" stroke-width="10" stroke-linecap="round" stroke-linejoin="round"/>
<path d="M21.2443 38.4114L21.2439 38.4084C21.2441 38.4099 21.2443 38.4114 21.2444 38.4128L21.2443 38.4114ZM38.4113 18.7562L38.4098 18.7564L38.4113 18.7562ZM28.758 7.54255L28.7646 7.54908C28.7624 7.5469 28.7602 7.54473 28.758 7.54255ZM32.0184 7.9152L32.7422 8.48469L32.0184 7.9152Z" stroke="#410F9E" stroke-width="10" stroke-linecap="round" stroke-linejoin="round"/>
<path d="M21.2443 38.4114L21.2439 38.4084C21.2441 38.4099 21.2443 38.4114 21.2444 38.4128L21.2443 38.4114ZM38.4113 18.7562L38.4098 18.7564L38.4113 18.7562ZM28.758 7.54255L28.7646 7.54908C28.7624 7.5469 28.7602 7.54473 28.758 7.54255ZM32.0184 7.9152L32.7422 8.48469L32.0184 7.9152Z" stroke="#453888" stroke-width="10" stroke-linecap="round" stroke-linejoin="round"/>
<path d="M21.2443 38.4114L21.2439 38.4084C21.2441 38.4099 21.2443 38.4114 21.2444 38.4128L21.2443 38.4114ZM38.4113 18.7562L38.4098 18.7564L38.4113 18.7562ZM28.758 7.54255L28.7646 7.54908C28.7624 7.5469 28.7602 7.54473 28.758 7.54255ZM32.0184 7.9152L32.7422 8.48469L32.0184 7.9152Z" stroke="#5946D7" stroke-width="10" stroke-linecap="round" stroke-linejoin="round"/>
</g>
<circle cx="20" cy="20" r="14" fill="white"/>
<circle cx="20" cy="20" r="14" stroke="#2E1066" stroke-width="4"/>
<circle cx="20" cy="20" r="14" stroke="#410F9E" stroke-width="4"/>
<circle cx="20" cy="20" r="14" stroke="#453888" stroke-width="4"/>
<circle cx="20" cy="20" r="14" stroke="#5946D7" stroke-width="4"/>
<g clip-path="url(#clip3_4142_17495)">
<path d="M23.4301 16.9239C23.413 16.9037 23.3986 16.8841 23.3784 16.8645L22.4907 15.9852C23.2269 15.8138 24.0195 15.1808 24.0195 14.5313C24.0195 13.7746 22.9963 13.5061 22.123 13.5061C21.2099 13.5061 21.104 14.1481 21.0931 14.6018L18.8026 12.3355C18.3373 11.8627 17.4547 11.4907 16.795 11.4907H12.3339H12.3329H7.87087C7.21165 11.4907 6.32958 11.8627 5.86373 12.3355L3.57376 14.6018C3.56187 14.1481 3.45588 13.5061 2.54382 13.5061C1.66951 13.5061 0.646809 13.7746 0.646809 14.5313C0.646809 15.1808 1.43995 15.8138 2.17621 15.9852L1.28845 16.8645C1.26829 16.8841 1.25433 16.9037 1.23675 16.9239C0.28695 17.757 -0.333496 19.3022 -0.333496 20.4234V23.7553C-0.333496 24.5639 -0.022756 25.2978 0.479288 25.8449V27.137C0.479288 27.8926 1.0956 28.5087 1.85358 28.5087H3.51534C4.27332 28.5087 4.88911 27.8937 4.88911 27.137V26.8064H12.3329H12.3339H19.7772V27.137C19.7772 27.8937 20.3925 28.5087 21.1515 28.5087H22.8128C23.5713 28.5087 24.1865 27.8926 24.1865 27.137V25.8449C24.6891 25.2978 24.9993 24.5639 24.9993 23.7553V20.4234C25.0004 19.3022 24.3799 17.757 23.4301 16.9239ZM6.70495 13.3426C7.02706 13.0672 7.59012 12.8582 7.87087 12.8582L10.9998 13L12.637 13.3426H16.5499C16.8306 13.3426 17.3518 13.2307 17.6739 13.5061L19.9998 16.3301H12.3339H12.3329H3.70199L6.70495 13.3426ZM0.696962 19.9193C0.696962 19.099 1.32258 18.433 2.09503 18.433C2.86697 18.433 5.3896 19.9527 5.3896 20.7731C5.3896 21.5935 2.86697 21.4035 2.09503 21.4035C1.32258 21.4035 0.696962 20.7402 0.696962 19.9193ZM4.88963 25.3456H4.62335H4.35708L2.77752 25.3482C2.33908 25.2081 2.02989 25.0447 1.81118 24.8691C1.70053 24.7804 1.61574 24.6881 1.54956 24.5963C1.48286 24.5035 1.43426 24.4122 1.40272 24.3209C1.20624 23.751 1.61212 23.2273 1.61212 23.2273H4.30796L6.10518 25.3445L4.88963 25.3456ZM16.2097 25.3466H12.3339H12.3329H8.45719C7.64906 25.3466 6.99294 24.6733 6.99294 23.8444H12.3329H12.3339H17.6739C17.6739 24.6743 17.0178 25.3466 16.2097 25.3466ZM16.5499 22.8192H12.3339H12.3329H8.11698C7.23802 22.8192 6.5245 21.707 6.5245 20.3353H12.3329H12.3339H18.1424C18.1424 21.7075 17.4288 22.8192 16.5499 22.8192ZM23.2647 24.322C23.2326 24.4132 23.184 24.5045 23.1173 24.5968C23.0516 24.6886 22.9668 24.781 22.8557 24.8696C22.6375 25.0452 22.3278 25.2097 21.8893 25.3488L20.3098 25.3461H20.0435H19.7772H18.5606L20.3589 23.2289H23.0542C23.0542 23.2289 23.4606 23.751 23.2647 24.322ZM22.5718 21.4035C21.8004 21.4035 19.2778 21.5924 19.2778 20.7731C19.2778 19.9538 21.8004 18.433 22.5718 18.433C23.3443 18.433 23.9699 19.099 23.9699 19.9193C23.9699 20.7391 23.3443 21.4035 22.5718 21.4035Z" fill="#2E1066"/>
<path d="M23.4301 16.9239C23.413 16.9037 23.3986 16.8841 23.3784 16.8645L22.4907 15.9852C23.2269 15.8138 24.0195 15.1808 24.0195 14.5313C24.0195 13.7746 22.9963 13.5061 22.123 13.5061C21.2099 13.5061 21.104 14.1481 21.0931 14.6018L18.8026 12.3355C18.3373 11.8627 17.4547 11.4907 16.795 11.4907H12.3339H12.3329H7.87087C7.21165 11.4907 6.32958 11.8627 5.86373 12.3355L3.57376 14.6018C3.56187 14.1481 3.45588 13.5061 2.54382 13.5061C1.66951 13.5061 0.646809 13.7746 0.646809 14.5313C0.646809 15.1808 1.43995 15.8138 2.17621 15.9852L1.28845 16.8645C1.26829 16.8841 1.25433 16.9037 1.23675 16.9239C0.28695 17.757 -0.333496 19.3022 -0.333496 20.4234V23.7553C-0.333496 24.5639 -0.022756 25.2978 0.479288 25.8449V27.137C0.479288 27.8926 1.0956 28.5087 1.85358 28.5087H3.51534C4.27332 28.5087 4.88911 27.8937 4.88911 27.137V26.8064H12.3329H12.3339H19.7772V27.137C19.7772 27.8937 20.3925 28.5087 21.1515 28.5087H22.8128C23.5713 28.5087 24.1865 27.8926 24.1865 27.137V25.8449C24.6891 25.2978 24.9993 24.5639 24.9993 23.7553V20.4234C25.0004 19.3022 24.3799 17.757 23.4301 16.9239ZM6.70495 13.3426C7.02706 13.0672 7.59012 12.8582 7.87087 12.8582L10.9998 13L12.637 13.3426H16.5499C16.8306 13.3426 17.3518 13.2307 17.6739 13.5061L19.9998 16.3301H12.3339H12.3329H3.70199L6.70495 13.3426ZM0.696962 19.9193C0.696962 19.099 1.32258 18.433 2.09503 18.433C2.86697 18.433 5.3896 19.9527 5.3896 20.7731C5.3896 21.5935 2.86697 21.4035 2.09503 21.4035C1.32258 21.4035 0.696962 20.7402 0.696962 19.9193ZM4.88963 25.3456H4.62335H4.35708L2.77752 25.3482C2.33908 25.2081 2.02989 25.0447 1.81118 24.8691C1.70053 24.7804 1.61574 24.6881 1.54956 24.5963C1.48286 24.5035 1.43426 24.4122 1.40272 24.3209C1.20624 23.751 1.61212 23.2273 1.61212 23.2273H4.30796L6.10518 25.3445L4.88963 25.3456ZM16.2097 25.3466H12.3339H12.3329H8.45719C7.64906 25.3466 6.99294 24.6733 6.99294 23.8444H12.3329H12.3339H17.6739C17.6739 24.6743 17.0178 25.3466 16.2097 25.3466ZM16.5499 22.8192H12.3339H12.3329H8.11698C7.23802 22.8192 6.5245 21.707 6.5245 20.3353H12.3329H12.3339H18.1424C18.1424 21.7075 17.4288 22.8192 16.5499 22.8192ZM23.2647 24.322C23.2326 24.4132 23.184 24.5045 23.1173 24.5968C23.0516 24.6886 22.9668 24.781 22.8557 24.8696C22.6375 25.0452 22.3278 25.2097 21.8893 25.3488L20.3098 25.3461H20.0435H19.7772H18.5606L20.3589 23.2289H23.0542C23.0542 23.2289 23.4606 23.751 23.2647 24.322ZM22.5718 21.4035C21.8004 21.4035 19.2778 21.5924 19.2778 20.7731C19.2778 19.9538 21.8004 18.433 22.5718 18.433C23.3443 18.433 23.9699 19.099 23.9699 19.9193C23.9699 20.7391 23.3443 21.4035 22.5718 21.4035Z" fill="#410F9E"/>
<path d="M23.4301 16.9239C23.413 16.9037 23.3986 16.8841 23.3784 16.8645L22.4907 15.9852C23.2269 15.8138 24.0195 15.1808 24.0195 14.5313C24.0195 13.7746 22.9963 13.5061 22.123 13.5061C21.2099 13.5061 21.104 14.1481 21.0931 14.6018L18.8026 12.3355C18.3373 11.8627 17.4547 11.4907 16.795 11.4907H12.3339H12.3329H7.87087C7.21165 11.4907 6.32958 11.8627 5.86373 12.3355L3.57376 14.6018C3.56187 14.1481 3.45588 13.5061 2.54382 13.5061C1.66951 13.5061 0.646809 13.7746 0.646809 14.5313C0.646809 15.1808 1.43995 15.8138 2.17621 15.9852L1.28845 16.8645C1.26829 16.8841 1.25433 16.9037 1.23675 16.9239C0.28695 17.757 -0.333496 19.3022 -0.333496 20.4234V23.7553C-0.333496 24.5639 -0.022756 25.2978 0.479288 25.8449V27.137C0.479288 27.8926 1.0956 28.5087 1.85358 28.5087H3.51534C4.27332 28.5087 4.88911 27.8937 4.88911 27.137V26.8064H12.3329H12.3339H19.7772V27.137C19.7772 27.8937 20.3925 28.5087 21.1515 28.5087H22.8128C23.5713 28.5087 24.1865 27.8926 24.1865 27.137V25.8449C24.6891 25.2978 24.9993 24.5639 24.9993 23.7553V20.4234C25.0004 19.3022 24.3799 17.757 23.4301 16.9239ZM6.70495 13.3426C7.02706 13.0672 7.59012 12.8582 7.87087 12.8582L10.9998 13L12.637 13.3426H16.5499C16.8306 13.3426 17.3518 13.2307 17.6739 13.5061L19.9998 16.3301H12.3339H12.3329H3.70199L6.70495 13.3426ZM0.696962 19.9193C0.696962 19.099 1.32258 18.433 2.09503 18.433C2.86697 18.433 5.3896 19.9527 5.3896 20.7731C5.3896 21.5935 2.86697 21.4035 2.09503 21.4035C1.32258 21.4035 0.696962 20.7402 0.696962 19.9193ZM4.88963 25.3456H4.62335H4.35708L2.77752 25.3482C2.33908 25.2081 2.02989 25.0447 1.81118 24.8691C1.70053 24.7804 1.61574 24.6881 1.54956 24.5963C1.48286 24.5035 1.43426 24.4122 1.40272 24.3209C1.20624 23.751 1.61212 23.2273 1.61212 23.2273H4.30796L6.10518 25.3445L4.88963 25.3456ZM16.2097 25.3466H12.3339H12.3329H8.45719C7.64906 25.3466 6.99294 24.6733 6.99294 23.8444H12.3329H12.3339H17.6739C17.6739 24.6743 17.0178 25.3466 16.2097 25.3466ZM16.5499 22.8192H12.3339H12.3329H8.11698C7.23802 22.8192 6.5245 21.707 6.5245 20.3353H12.3329H12.3339H18.1424C18.1424 21.7075 17.4288 22.8192 16.5499 22.8192ZM23.2647 24.322C23.2326 24.4132 23.184 24.5045 23.1173 24.5968C23.0516 24.6886 22.9668 24.781 22.8557 24.8696C22.6375 25.0452 22.3278 25.2097 21.8893 25.3488L20.3098 25.3461H20.0435H19.7772H18.5606L20.3589 23.2289H23.0542C23.0542 23.2289 23.4606 23.751 23.2647 24.322ZM22.5718 21.4035C21.8004 21.4035 19.2778 21.5924 19.2778 20.7731C19.2778 19.9538 21.8004 18.433 22.5718 18.433C23.3443 18.433 23.9699 19.099 23.9699 19.9193C23.9699 20.7391 23.3443 21.4035 22.5718 21.4035Z" fill="#453888"/>
<path d="M23.4301 16.9239C23.413 16.9037 23.3986 16.8841 23.3784 16.8645L22.4907 15.9852C23.2269 15.8138 24.0195 15.1808 24.0195 14.5313C24.0195 13.7746 22.9963 13.5061 22.123 13.5061C21.2099 13.5061 21.104 14.1481 21.0931 14.6018L18.8026 12.3355C18.3373 11.8627 17.4547 11.4907 16.795 11.4907H12.3339H12.3329H7.87087C7.21165 11.4907 6.32958 11.8627 5.86373 12.3355L3.57376 14.6018C3.56187 14.1481 3.45588 13.5061 2.54382 13.5061C1.66951 13.5061 0.646809 13.7746 0.646809 14.5313C0.646809 15.1808 1.43995 15.8138 2.17621 15.9852L1.28845 16.8645C1.26829 16.8841 1.25433 16.9037 1.23675 16.9239C0.28695 17.757 -0.333496 19.3022 -0.333496 20.4234V23.7553C-0.333496 24.5639 -0.022756 25.2978 0.479288 25.8449V27.137C0.479288 27.8926 1.0956 28.5087 1.85358 28.5087H3.51534C4.27332 28.5087 4.88911 27.8937 4.88911 27.137V26.8064H12.3329H12.3339H19.7772V27.137C19.7772 27.8937 20.3925 28.5087 21.1515 28.5087H22.8128C23.5713 28.5087 24.1865 27.8926 24.1865 27.137V25.8449C24.6891 25.2978 24.9993 24.5639 24.9993 23.7553V20.4234C25.0004 19.3022 24.3799 17.757 23.4301 16.9239ZM6.70495 13.3426C7.02706 13.0672 7.59012 12.8582 7.87087 12.8582L10.9998 13L12.637 13.3426H16.5499C16.8306 13.3426 17.3518 13.2307 17.6739 13.5061L19.9998 16.3301H12.3339H12.3329H3.70199L6.70495 13.3426ZM0.696962 19.9193C0.696962 19.099 1.32258 18.433 2.09503 18.433C2.86697 18.433 5.3896 19.9527 5.3896 20.7731C5.3896 21.5935 2.86697 21.4035 2.09503 21.4035C1.32258 21.4035 0.696962 20.7402 0.696962 19.9193ZM4.88963 25.3456H4.62335H4.35708L2.77752 25.3482C2.33908 25.2081 2.02989 25.0447 1.81118 24.8691C1.70053 24.7804 1.61574 24.6881 1.54956 24.5963C1.48286 24.5035 1.43426 24.4122 1.40272 24.3209C1.20624 23.751 1.61212 23.2273 1.61212 23.2273H4.30796L6.10518 25.3445L4.88963 25.3456ZM16.2097 25.3466H12.3339H12.3329H8.45719C7.64906 25.3466 6.99294 24.6733 6.99294 23.8444H12.3329H12.3339H17.6739C17.6739 24.6743 17.0178 25.3466 16.2097 25.3466ZM16.5499 22.8192H12.3339H12.3329H8.11698C7.23802 22.8192 6.5245 21.707 6.5245 20.3353H12.3329H12.3339H18.1424C18.1424 21.7075 17.4288 22.8192 16.5499 22.8192ZM23.2647 24.322C23.2326 24.4132 23.184 24.5045 23.1173 24.5968C23.0516 24.6886 22.9668 24.781 22.8557 24.8696C22.6375 25.0452 22.3278 25.2097 21.8893 25.3488L20.3098 25.3461H20.0435H19.7772H18.5606L20.3589 23.2289H23.0542C23.0542 23.2289 23.4606 23.751 23.2647 24.322ZM22.5718 21.4035C21.8004 21.4035 19.2778 21.5924 19.2778 20.7731C19.2778 19.9538 21.8004 18.433 22.5718 18.433C23.3443 18.433 23.9699 19.099 23.9699 19.9193C23.9699 20.7391 23.3443 21.4035 22.5718 21.4035Z" fill="#5946D7"/>
<path d="M16.2097 25.3466H12.3339H12.3329H8.45719C7.64906 25.3466 6.99294 24.6733 6.99294 23.8444H12.3329H12.3339H17.6739C17.6739 24.6743 17.0178 25.3466 16.2097 25.3466Z" fill="#2E1066"/>
<path d="M16.2097 25.3466H12.3339H12.3329H8.45719C7.64906 25.3466 6.99294 24.6733 6.99294 23.8444H12.3329H12.3339H17.6739C17.6739 24.6743 17.0178 25.3466 16.2097 25.3466Z" fill="#410F9E"/>
<path d="M16.2097 25.3466H12.3339H12.3329H8.45719C7.64906 25.3466 6.99294 24.6733 6.99294 23.8444H12.3329H12.3339H17.6739C17.6739 24.6743 17.0178 25.3466 16.2097 25.3466Z" fill="#453888"/>
<path d="M16.2097 25.3466H12.3339H12.3329H8.45719C7.64906 25.3466 6.99294 24.6733 6.99294 23.8444H12.3329H12.3339H17.6739C17.6739 24.6743 17.0178 25.3466 16.2097 25.3466Z" fill="#5946D7"/>
</g>
<circle cx="20" cy="20" r="11.5" stroke="white" stroke-width="3"/>
</g>
</g>
<defs>
<clipPath id="clip0_4142_17495">
<rect width="40" height="40" fill="white"/>
</clipPath>
<clipPath id="clip1_4142_17495">
<rect width="40" height="40" fill="white"/>
</clipPath>
<clipPath id="clip2_4142_17495">
<rect width="40" height="40" fill="white"/>
</clipPath>
<clipPath id="clip3_4142_17495">
<rect width="19" height="26" fill="white" transform="translate(6 7)"/>
</clipPath>
</defs>
</svg>
