<svg width="206" height="41" viewBox="0 0 206 41" fill="none" xmlns="http://www.w3.org/2000/svg">
<path d="M63.5156 13.2812C61.3802 13.2812 59.474 14.1198 57.7969 15.7969C56.1302 17.474 55.2969 19.401 55.2969 21.5781C55.2969 23.4115 55.9062 24.9479 57.125 26.1875C58.3542 27.4167 59.9323 28.0312 61.8594 28.0312C63.974 28.0312 65.8698 27.2135 67.5469 25.5781C69.2344 23.9323 70.0781 21.9792 70.0781 19.7188C70.0781 17.8854 69.4583 16.3542 68.2188 15.125C66.9792 13.8958 65.4115 13.2812 63.5156 13.2812ZM50.2656 21.8594C50.2656 18.4844 51.6302 15.5 54.3594 12.9062C57.099 10.3021 60.2604 9 63.8438 9C67.1458 9 69.849 10.0208 71.9531 12.0625C74.0573 14.0938 75.1094 16.5573 75.1094 19.4531C75.1094 21.7135 74.4792 23.8438 73.2188 25.8438C71.9583 27.8333 70.2865 29.4167 68.2031 30.5938C66.1302 31.7708 63.9271 32.3594 61.5938 32.3594C58.2917 32.3594 55.5781 31.3438 53.4531 29.3125C51.3281 27.2708 50.2656 24.7865 50.2656 21.8594Z" fill="#2E1066"/>
<path d="M63.5156 13.2812C61.3802 13.2812 59.474 14.1198 57.7969 15.7969C56.1302 17.474 55.2969 19.401 55.2969 21.5781C55.2969 23.4115 55.9062 24.9479 57.125 26.1875C58.3542 27.4167 59.9323 28.0312 61.8594 28.0312C63.974 28.0312 65.8698 27.2135 67.5469 25.5781C69.2344 23.9323 70.0781 21.9792 70.0781 19.7188C70.0781 17.8854 69.4583 16.3542 68.2188 15.125C66.9792 13.8958 65.4115 13.2812 63.5156 13.2812ZM50.2656 21.8594C50.2656 18.4844 51.6302 15.5 54.3594 12.9062C57.099 10.3021 60.2604 9 63.8438 9C67.1458 9 69.849 10.0208 71.9531 12.0625C74.0573 14.0938 75.1094 16.5573 75.1094 19.4531C75.1094 21.7135 74.4792 23.8438 73.2188 25.8438C71.9583 27.8333 70.2865 29.4167 68.2031 30.5938C66.1302 31.7708 63.9271 32.3594 61.5938 32.3594C58.2917 32.3594 55.5781 31.3438 53.4531 29.3125C51.3281 27.2708 50.2656 24.7865 50.2656 21.8594Z" fill="#410F9E"/>
<path d="M63.5156 13.2812C61.3802 13.2812 59.474 14.1198 57.7969 15.7969C56.1302 17.474 55.2969 19.401 55.2969 21.5781C55.2969 23.4115 55.9062 24.9479 57.125 26.1875C58.3542 27.4167 59.9323 28.0312 61.8594 28.0312C63.974 28.0312 65.8698 27.2135 67.5469 25.5781C69.2344 23.9323 70.0781 21.9792 70.0781 19.7188C70.0781 17.8854 69.4583 16.3542 68.2188 15.125C66.9792 13.8958 65.4115 13.2812 63.5156 13.2812ZM50.2656 21.8594C50.2656 18.4844 51.6302 15.5 54.3594 12.9062C57.099 10.3021 60.2604 9 63.8438 9C67.1458 9 69.849 10.0208 71.9531 12.0625C74.0573 14.0938 75.1094 16.5573 75.1094 19.4531C75.1094 21.7135 74.4792 23.8438 73.2188 25.8438C71.9583 27.8333 70.2865 29.4167 68.2031 30.5938C66.1302 31.7708 63.9271 32.3594 61.5938 32.3594C58.2917 32.3594 55.5781 31.3438 53.4531 29.3125C51.3281 27.2708 50.2656 24.7865 50.2656 21.8594Z" fill="#453888"/>
<path d="M63.5156 13.2812C61.3802 13.2812 59.474 14.1198 57.7969 15.7969C56.1302 17.474 55.2969 19.401 55.2969 21.5781C55.2969 23.4115 55.9062 24.9479 57.125 26.1875C58.3542 27.4167 59.9323 28.0312 61.8594 28.0312C63.974 28.0312 65.8698 27.2135 67.5469 25.5781C69.2344 23.9323 70.0781 21.9792 70.0781 19.7188C70.0781 17.8854 69.4583 16.3542 68.2188 15.125C66.9792 13.8958 65.4115 13.2812 63.5156 13.2812ZM50.2656 21.8594C50.2656 18.4844 51.6302 15.5 54.3594 12.9062C57.099 10.3021 60.2604 9 63.8438 9C67.1458 9 69.849 10.0208 71.9531 12.0625C74.0573 14.0938 75.1094 16.5573 75.1094 19.4531C75.1094 21.7135 74.4792 23.8438 73.2188 25.8438C71.9583 27.8333 70.2865 29.4167 68.2031 30.5938C66.1302 31.7708 63.9271 32.3594 61.5938 32.3594C58.2917 32.3594 55.5781 31.3438 53.4531 29.3125C51.3281 27.2708 50.2656 24.7865 50.2656 21.8594Z" fill="#5946D7"/>
<path d="M97.5462 9.46875H102.343L97.6087 31.875H93.6087L85.4212 17.6094L82.4056 31.875H77.6087L82.3431 9.46875H86.3431L94.5462 23.75L97.5462 9.46875Z" fill="#2E1066"/>
<path d="M97.5462 9.46875H102.343L97.6087 31.875H93.6087L85.4212 17.6094L82.4056 31.875H77.6087L82.3431 9.46875H86.3431L94.5462 23.75L97.5462 9.46875Z" fill="#410F9E"/>
<path d="M97.5462 9.46875H102.343L97.6087 31.875H93.6087L85.4212 17.6094L82.4056 31.875H77.6087L82.3431 9.46875H86.3431L94.5462 23.75L97.5462 9.46875Z" fill="#453888"/>
<path d="M97.5462 9.46875H102.343L97.6087 31.875H93.6087L85.4212 17.6094L82.4056 31.875H77.6087L82.3431 9.46875H86.3431L94.5462 23.75L97.5462 9.46875Z" fill="#5946D7"/>
<path d="M109.702 27.5625H121.702L120.796 31.875H103.999L108.733 9.46875H125.217L124.327 13.7969H112.639L111.686 18.2812H120.796L119.874 22.5938H110.749L109.702 27.5625Z" fill="#2E1066"/>
<path d="M109.702 27.5625H121.702L120.796 31.875H103.999L108.733 9.46875H125.217L124.327 13.7969H112.639L111.686 18.2812H120.796L119.874 22.5938H110.749L109.702 27.5625Z" fill="#410F9E"/>
<path d="M109.702 27.5625H121.702L120.796 31.875H103.999L108.733 9.46875H125.217L124.327 13.7969H112.639L111.686 18.2812H120.796L119.874 22.5938H110.749L109.702 27.5625Z" fill="#453888"/>
<path d="M109.702 27.5625H121.702L120.796 31.875H103.999L108.733 9.46875H125.217L124.327 13.7969H112.639L111.686 18.2812H120.796L119.874 22.5938H110.749L109.702 27.5625Z" fill="#5946D7"/>
<path d="M125.92 31.875L130.654 9.46875H140.123C142.019 9.46875 143.613 10.1094 144.904 11.3906C146.206 12.6719 146.857 14.1667 146.857 15.875C146.857 16.9792 146.665 18 146.279 18.9375C145.894 19.8646 145.425 20.5938 144.873 21.125C144.331 21.6562 143.795 22.1042 143.264 22.4688C142.732 22.8333 142.274 23.0781 141.889 23.2031L141.311 23.3906L144.326 31.875H139.326L136.67 24.0312H132.389L130.717 31.875H125.92ZM138.217 19.7188C139.196 19.7188 140.061 19.4219 140.811 18.8281C141.571 18.224 141.951 17.4219 141.951 16.4219C141.951 15.6927 141.732 15.0729 141.295 14.5625C140.857 14.0521 140.279 13.7969 139.561 13.7969H134.561L133.279 19.7188H138.217Z" fill="#2E1066"/>
<path d="M125.92 31.875L130.654 9.46875H140.123C142.019 9.46875 143.613 10.1094 144.904 11.3906C146.206 12.6719 146.857 14.1667 146.857 15.875C146.857 16.9792 146.665 18 146.279 18.9375C145.894 19.8646 145.425 20.5938 144.873 21.125C144.331 21.6562 143.795 22.1042 143.264 22.4688C142.732 22.8333 142.274 23.0781 141.889 23.2031L141.311 23.3906L144.326 31.875H139.326L136.67 24.0312H132.389L130.717 31.875H125.92ZM138.217 19.7188C139.196 19.7188 140.061 19.4219 140.811 18.8281C141.571 18.224 141.951 17.4219 141.951 16.4219C141.951 15.6927 141.732 15.0729 141.295 14.5625C140.857 14.0521 140.279 13.7969 139.561 13.7969H134.561L133.279 19.7188H138.217Z" fill="#410F9E"/>
<path d="M125.92 31.875L130.654 9.46875H140.123C142.019 9.46875 143.613 10.1094 144.904 11.3906C146.206 12.6719 146.857 14.1667 146.857 15.875C146.857 16.9792 146.665 18 146.279 18.9375C145.894 19.8646 145.425 20.5938 144.873 21.125C144.331 21.6562 143.795 22.1042 143.264 22.4688C142.732 22.8333 142.274 23.0781 141.889 23.2031L141.311 23.3906L144.326 31.875H139.326L136.67 24.0312H132.389L130.717 31.875H125.92ZM138.217 19.7188C139.196 19.7188 140.061 19.4219 140.811 18.8281C141.571 18.224 141.951 17.4219 141.951 16.4219C141.951 15.6927 141.732 15.0729 141.295 14.5625C140.857 14.0521 140.279 13.7969 139.561 13.7969H134.561L133.279 19.7188H138.217Z" fill="#453888"/>
<path d="M125.92 31.875L130.654 9.46875H140.123C142.019 9.46875 143.613 10.1094 144.904 11.3906C146.206 12.6719 146.857 14.1667 146.857 15.875C146.857 16.9792 146.665 18 146.279 18.9375C145.894 19.8646 145.425 20.5938 144.873 21.125C144.331 21.6562 143.795 22.1042 143.264 22.4688C142.732 22.8333 142.274 23.0781 141.889 23.2031L141.311 23.3906L144.326 31.875H139.326L136.67 24.0312H132.389L130.717 31.875H125.92ZM138.217 19.7188C139.196 19.7188 140.061 19.4219 140.811 18.8281C141.571 18.224 141.951 17.4219 141.951 16.4219C141.951 15.6927 141.732 15.0729 141.295 14.5625C140.857 14.0521 140.279 13.7969 139.561 13.7969H134.561L133.279 19.7188H138.217Z" fill="#5946D7"/>
<path d="M148.232 30.0156C148.232 29.3594 148.518 28.7604 149.091 28.2188C149.664 27.6667 150.326 27.3906 151.076 27.3906C151.763 27.3906 152.326 27.6042 152.763 28.0312C153.211 28.4583 153.435 28.974 153.435 29.5781C153.435 30.2865 153.149 30.901 152.576 31.4219C152.003 31.9323 151.341 32.1875 150.591 32.1875C149.904 32.1875 149.336 31.9688 148.888 31.5312C148.451 31.0938 148.232 30.5885 148.232 30.0156Z" fill="#2E1066"/>
<path d="M148.232 30.0156C148.232 29.3594 148.518 28.7604 149.091 28.2188C149.664 27.6667 150.326 27.3906 151.076 27.3906C151.763 27.3906 152.326 27.6042 152.763 28.0312C153.211 28.4583 153.435 28.974 153.435 29.5781C153.435 30.2865 153.149 30.901 152.576 31.4219C152.003 31.9323 151.341 32.1875 150.591 32.1875C149.904 32.1875 149.336 31.9688 148.888 31.5312C148.451 31.0938 148.232 30.5885 148.232 30.0156Z" fill="#410F9E"/>
<path d="M148.232 30.0156C148.232 29.3594 148.518 28.7604 149.091 28.2188C149.664 27.6667 150.326 27.3906 151.076 27.3906C151.763 27.3906 152.326 27.6042 152.763 28.0312C153.211 28.4583 153.435 28.974 153.435 29.5781C153.435 30.2865 153.149 30.901 152.576 31.4219C152.003 31.9323 151.341 32.1875 150.591 32.1875C149.904 32.1875 149.336 31.9688 148.888 31.5312C148.451 31.0938 148.232 30.5885 148.232 30.0156Z" fill="#453888"/>
<path d="M148.232 30.0156C148.232 29.3594 148.518 28.7604 149.091 28.2188C149.664 27.6667 150.326 27.3906 151.076 27.3906C151.763 27.3906 152.326 27.6042 152.763 28.0312C153.211 28.4583 153.435 28.974 153.435 29.5781C153.435 30.2865 153.149 30.901 152.576 31.4219C152.003 31.9323 151.341 32.1875 150.591 32.1875C149.904 32.1875 149.336 31.9688 148.888 31.5312C148.451 31.0938 148.232 30.5885 148.232 30.0156Z" fill="#5946D7"/>
<path d="M157.919 31.875L162.653 9.46875H172.122C174.018 9.46875 175.611 10.1094 176.903 11.3906C178.205 12.6719 178.856 14.1667 178.856 15.875C178.856 16.9792 178.664 18 178.278 18.9375C177.893 19.8646 177.424 20.5938 176.872 21.125C176.33 21.6562 175.794 22.1042 175.262 22.4688C174.731 22.8333 174.273 23.0781 173.887 23.2031L173.309 23.3906L176.325 31.875H171.325L168.669 24.0312H164.387L162.716 31.875H157.919ZM170.216 19.7188C171.195 19.7188 172.059 19.4219 172.809 18.8281C173.57 18.224 173.95 17.4219 173.95 16.4219C173.95 15.6927 173.731 15.0729 173.294 14.5625C172.856 14.0521 172.278 13.7969 171.559 13.7969H166.559L165.278 19.7188H170.216Z" fill="#2E1066"/>
<path d="M157.919 31.875L162.653 9.46875H172.122C174.018 9.46875 175.611 10.1094 176.903 11.3906C178.205 12.6719 178.856 14.1667 178.856 15.875C178.856 16.9792 178.664 18 178.278 18.9375C177.893 19.8646 177.424 20.5938 176.872 21.125C176.33 21.6562 175.794 22.1042 175.262 22.4688C174.731 22.8333 174.273 23.0781 173.887 23.2031L173.309 23.3906L176.325 31.875H171.325L168.669 24.0312H164.387L162.716 31.875H157.919ZM170.216 19.7188C171.195 19.7188 172.059 19.4219 172.809 18.8281C173.57 18.224 173.95 17.4219 173.95 16.4219C173.95 15.6927 173.731 15.0729 173.294 14.5625C172.856 14.0521 172.278 13.7969 171.559 13.7969H166.559L165.278 19.7188H170.216Z" fill="#410F9E"/>
<path d="M157.919 31.875L162.653 9.46875H172.122C174.018 9.46875 175.611 10.1094 176.903 11.3906C178.205 12.6719 178.856 14.1667 178.856 15.875C178.856 16.9792 178.664 18 178.278 18.9375C177.893 19.8646 177.424 20.5938 176.872 21.125C176.33 21.6562 175.794 22.1042 175.262 22.4688C174.731 22.8333 174.273 23.0781 173.887 23.2031L173.309 23.3906L176.325 31.875H171.325L168.669 24.0312H164.387L162.716 31.875H157.919ZM170.216 19.7188C171.195 19.7188 172.059 19.4219 172.809 18.8281C173.57 18.224 173.95 17.4219 173.95 16.4219C173.95 15.6927 173.731 15.0729 173.294 14.5625C172.856 14.0521 172.278 13.7969 171.559 13.7969H166.559L165.278 19.7188H170.216Z" fill="#453888"/>
<path d="M157.919 31.875L162.653 9.46875H172.122C174.018 9.46875 175.611 10.1094 176.903 11.3906C178.205 12.6719 178.856 14.1667 178.856 15.875C178.856 16.9792 178.664 18 178.278 18.9375C177.893 19.8646 177.424 20.5938 176.872 21.125C176.33 21.6562 175.794 22.1042 175.262 22.4688C174.731 22.8333 174.273 23.0781 173.887 23.2031L173.309 23.3906L176.325 31.875H171.325L168.669 24.0312H164.387L162.716 31.875H157.919ZM170.216 19.7188C171.195 19.7188 172.059 19.4219 172.809 18.8281C173.57 18.224 173.95 17.4219 173.95 16.4219C173.95 15.6927 173.731 15.0729 173.294 14.5625C172.856 14.0521 172.278 13.7969 171.559 13.7969H166.559L165.278 19.7188H170.216Z" fill="#5946D7"/>
<path d="M191.84 28.0312C193.205 28.0312 194.449 27.5312 195.574 26.5312C196.71 25.5312 197.439 24.2708 197.762 22.75L200.574 9.46875H205.371L202.559 22.75C201.965 25.5417 200.673 27.8438 198.684 29.6562C196.705 31.4583 194.35 32.3594 191.621 32.3594C189.121 32.3594 187.033 31.625 185.356 30.1562C183.689 28.6771 182.856 26.8073 182.856 24.5469C182.856 23.974 182.918 23.375 183.043 22.75L185.856 9.46875H190.652L187.84 22.75C187.757 23.1146 187.715 23.5 187.715 23.9062C187.715 25.125 188.1 26.1198 188.871 26.8906C189.652 27.651 190.642 28.0312 191.84 28.0312Z" fill="#2E1066"/>
<path d="M191.84 28.0312C193.205 28.0312 194.449 27.5312 195.574 26.5312C196.71 25.5312 197.439 24.2708 197.762 22.75L200.574 9.46875H205.371L202.559 22.75C201.965 25.5417 200.673 27.8438 198.684 29.6562C196.705 31.4583 194.35 32.3594 191.621 32.3594C189.121 32.3594 187.033 31.625 185.356 30.1562C183.689 28.6771 182.856 26.8073 182.856 24.5469C182.856 23.974 182.918 23.375 183.043 22.75L185.856 9.46875H190.652L187.84 22.75C187.757 23.1146 187.715 23.5 187.715 23.9062C187.715 25.125 188.1 26.1198 188.871 26.8906C189.652 27.651 190.642 28.0312 191.84 28.0312Z" fill="#410F9E"/>
<path d="M191.84 28.0312C193.205 28.0312 194.449 27.5312 195.574 26.5312C196.71 25.5312 197.439 24.2708 197.762 22.75L200.574 9.46875H205.371L202.559 22.75C201.965 25.5417 200.673 27.8438 198.684 29.6562C196.705 31.4583 194.35 32.3594 191.621 32.3594C189.121 32.3594 187.033 31.625 185.356 30.1562C183.689 28.6771 182.856 26.8073 182.856 24.5469C182.856 23.974 182.918 23.375 183.043 22.75L185.856 9.46875H190.652L187.84 22.75C187.757 23.1146 187.715 23.5 187.715 23.9062C187.715 25.125 188.1 26.1198 188.871 26.8906C189.652 27.651 190.642 28.0312 191.84 28.0312Z" fill="#453888"/>
<path d="M191.84 28.0312C193.205 28.0312 194.449 27.5312 195.574 26.5312C196.71 25.5312 197.439 24.2708 197.762 22.75L200.574 9.46875H205.371L202.559 22.75C201.965 25.5417 200.673 27.8438 198.684 29.6562C196.705 31.4583 194.35 32.3594 191.621 32.3594C189.121 32.3594 187.033 31.625 185.356 30.1562C183.689 28.6771 182.856 26.8073 182.856 24.5469C182.856 23.974 182.918 23.375 183.043 22.75L185.856 9.46875H190.652L187.84 22.75C187.757 23.1146 187.715 23.5 187.715 23.9062C187.715 25.125 188.1 26.1198 188.871 26.8906C189.652 27.651 190.642 28.0312 191.84 28.0312Z" fill="#5946D7"/>
<g clip-path="url(#clip0_229_10)">
<g clip-path="url(#clip1_229_10)">
<g clip-path="url(#clip2_229_10)">
<path d="M21.2443 39.4114L21.2439 39.4084C21.2441 39.4099 21.2443 39.4114 21.2444 39.4128L21.2443 39.4114ZM38.4113 19.7562L38.4098 19.7564L38.4113 19.7562ZM28.758 8.54255L28.7646 8.54908C28.7624 8.5469 28.7602 8.54473 28.758 8.54255ZM32.0184 8.9152L32.7422 9.48469L32.0184 8.9152Z" fill="#2E1066"/>
<path d="M21.2443 39.4114L21.2439 39.4084C21.2441 39.4099 21.2443 39.4114 21.2444 39.4128L21.2443 39.4114ZM38.4113 19.7562L38.4098 19.7564L38.4113 19.7562ZM28.758 8.54255L28.7646 8.54908C28.7624 8.5469 28.7602 8.54473 28.758 8.54255ZM32.0184 8.9152L32.7422 9.48469L32.0184 8.9152Z" fill="#410F9E"/>
<path d="M21.2443 39.4114L21.2439 39.4084C21.2441 39.4099 21.2443 39.4114 21.2444 39.4128L21.2443 39.4114ZM38.4113 19.7562L38.4098 19.7564L38.4113 19.7562ZM28.758 8.54255L28.7646 8.54908C28.7624 8.5469 28.7602 8.54473 28.758 8.54255ZM32.0184 8.9152L32.7422 9.48469L32.0184 8.9152Z" fill="#453888"/>
<path d="M21.2443 39.4114L21.2439 39.4084C21.2441 39.4099 21.2443 39.4114 21.2444 39.4128L21.2443 39.4114ZM38.4113 19.7562L38.4098 19.7564L38.4113 19.7562ZM28.758 8.54255L28.7646 8.54908C28.7624 8.5469 28.7602 8.54473 28.758 8.54255ZM32.0184 8.9152L32.7422 9.48469L32.0184 8.9152Z" fill="#5946D7"/>
<path d="M21.2443 39.4114L21.2439 39.4084C21.2441 39.4099 21.2443 39.4114 21.2444 39.4128L21.2443 39.4114ZM38.4113 19.7562L38.4098 19.7564L38.4113 19.7562ZM28.758 8.54255L28.7646 8.54908C28.7624 8.5469 28.7602 8.54473 28.758 8.54255ZM32.0184 8.9152L32.7422 9.48469L32.0184 8.9152Z" stroke="#2E1066" stroke-width="10" stroke-linecap="round" stroke-linejoin="round"/>
<path d="M21.2443 39.4114L21.2439 39.4084C21.2441 39.4099 21.2443 39.4114 21.2444 39.4128L21.2443 39.4114ZM38.4113 19.7562L38.4098 19.7564L38.4113 19.7562ZM28.758 8.54255L28.7646 8.54908C28.7624 8.5469 28.7602 8.54473 28.758 8.54255ZM32.0184 8.9152L32.7422 9.48469L32.0184 8.9152Z" stroke="#410F9E" stroke-width="10" stroke-linecap="round" stroke-linejoin="round"/>
<path d="M21.2443 39.4114L21.2439 39.4084C21.2441 39.4099 21.2443 39.4114 21.2444 39.4128L21.2443 39.4114ZM38.4113 19.7562L38.4098 19.7564L38.4113 19.7562ZM28.758 8.54255L28.7646 8.54908C28.7624 8.5469 28.7602 8.54473 28.758 8.54255ZM32.0184 8.9152L32.7422 9.48469L32.0184 8.9152Z" stroke="#453888" stroke-width="10" stroke-linecap="round" stroke-linejoin="round"/>
<path d="M21.2443 39.4114L21.2439 39.4084C21.2441 39.4099 21.2443 39.4114 21.2444 39.4128L21.2443 39.4114ZM38.4113 19.7562L38.4098 19.7564L38.4113 19.7562ZM28.758 8.54255L28.7646 8.54908C28.7624 8.5469 28.7602 8.54473 28.758 8.54255ZM32.0184 8.9152L32.7422 9.48469L32.0184 8.9152Z" stroke="#5946D7" stroke-width="10" stroke-linecap="round" stroke-linejoin="round"/>
</g>
<circle cx="20" cy="21" r="14" fill="white"/>
<circle cx="20" cy="21" r="14" stroke="#2E1066" stroke-width="4"/>
<circle cx="20" cy="21" r="14" stroke="#410F9E" stroke-width="4"/>
<circle cx="20" cy="21" r="14" stroke="#453888" stroke-width="4"/>
<circle cx="20" cy="21" r="14" stroke="#5946D7" stroke-width="4"/>
<g clip-path="url(#clip3_229_10)">
<path d="M23.4301 17.9239C23.413 17.9037 23.3986 17.8841 23.3784 17.8645L22.4907 16.9852C23.2269 16.8138 24.0195 16.1808 24.0195 15.5313C24.0195 14.7746 22.9963 14.5061 22.123 14.5061C21.2099 14.5061 21.104 15.1481 21.0931 15.6018L18.8026 13.3355C18.3373 12.8627 17.4547 12.4907 16.795 12.4907H12.3339H12.3329H7.87087C7.21165 12.4907 6.32958 12.8627 5.86373 13.3355L3.57376 15.6018C3.56187 15.1481 3.45588 14.5061 2.54382 14.5061C1.66951 14.5061 0.646809 14.7746 0.646809 15.5313C0.646809 16.1808 1.43995 16.8138 2.17621 16.9852L1.28845 17.8645C1.26829 17.8841 1.25433 17.9037 1.23675 17.9239C0.28695 18.757 -0.333496 20.3022 -0.333496 21.4234V24.7553C-0.333496 25.5639 -0.022756 26.2978 0.479288 26.8449V28.137C0.479288 28.8926 1.0956 29.5087 1.85358 29.5087H3.51534C4.27332 29.5087 4.88911 28.8937 4.88911 28.137V27.8064H12.3329H12.3339H19.7772V28.137C19.7772 28.8937 20.3925 29.5087 21.1515 29.5087H22.8128C23.5713 29.5087 24.1865 28.8926 24.1865 28.137V26.8449C24.6891 26.2978 24.9993 25.5639 24.9993 24.7553V21.4234C25.0004 20.3022 24.3799 18.757 23.4301 17.9239ZM6.70495 14.3426C7.02706 14.0672 7.59012 13.8582 7.87087 13.8582L10.9998 14L12.637 14.3426H16.5499C16.8306 14.3426 17.3518 14.2307 17.6739 14.5061L19.9998 17.3301H12.3339H12.3329H3.70199L6.70495 14.3426ZM0.696962 20.9193C0.696962 20.099 1.32258 19.433 2.09503 19.433C2.86697 19.433 5.3896 20.9527 5.3896 21.7731C5.3896 22.5935 2.86697 22.4035 2.09503 22.4035C1.32258 22.4035 0.696962 21.7402 0.696962 20.9193ZM4.88963 26.3456H4.62335H4.35708L2.77752 26.3482C2.33908 26.2081 2.02989 26.0447 1.81118 25.8691C1.70053 25.7804 1.61574 25.6881 1.54956 25.5963C1.48286 25.5035 1.43426 25.4122 1.40272 25.3209C1.20624 24.751 1.61212 24.2273 1.61212 24.2273H4.30796L6.10518 26.3445L4.88963 26.3456ZM16.2097 26.3466H12.3339H12.3329H8.45719C7.64906 26.3466 6.99294 25.6733 6.99294 24.8444H12.3329H12.3339H17.6739C17.6739 25.6743 17.0178 26.3466 16.2097 26.3466ZM16.5499 23.8192H12.3339H12.3329H8.11698C7.23802 23.8192 6.5245 22.707 6.5245 21.3353H12.3329H12.3339H18.1424C18.1424 22.7075 17.4288 23.8192 16.5499 23.8192ZM23.2647 25.322C23.2326 25.4132 23.184 25.5045 23.1173 25.5968C23.0516 25.6886 22.9668 25.781 22.8557 25.8696C22.6375 26.0452 22.3278 26.2097 21.8893 26.3488L20.3098 26.3461H20.0435H19.7772H18.5606L20.3589 24.2289H23.0542C23.0542 24.2289 23.4606 24.751 23.2647 25.322ZM22.5718 22.4035C21.8004 22.4035 19.2778 22.5924 19.2778 21.7731C19.2778 20.9538 21.8004 19.433 22.5718 19.433C23.3443 19.433 23.9699 20.099 23.9699 20.9193C23.9699 21.7391 23.3443 22.4035 22.5718 22.4035Z" fill="#2E1066"/>
<path d="M23.4301 17.9239C23.413 17.9037 23.3986 17.8841 23.3784 17.8645L22.4907 16.9852C23.2269 16.8138 24.0195 16.1808 24.0195 15.5313C24.0195 14.7746 22.9963 14.5061 22.123 14.5061C21.2099 14.5061 21.104 15.1481 21.0931 15.6018L18.8026 13.3355C18.3373 12.8627 17.4547 12.4907 16.795 12.4907H12.3339H12.3329H7.87087C7.21165 12.4907 6.32958 12.8627 5.86373 13.3355L3.57376 15.6018C3.56187 15.1481 3.45588 14.5061 2.54382 14.5061C1.66951 14.5061 0.646809 14.7746 0.646809 15.5313C0.646809 16.1808 1.43995 16.8138 2.17621 16.9852L1.28845 17.8645C1.26829 17.8841 1.25433 17.9037 1.23675 17.9239C0.28695 18.757 -0.333496 20.3022 -0.333496 21.4234V24.7553C-0.333496 25.5639 -0.022756 26.2978 0.479288 26.8449V28.137C0.479288 28.8926 1.0956 29.5087 1.85358 29.5087H3.51534C4.27332 29.5087 4.88911 28.8937 4.88911 28.137V27.8064H12.3329H12.3339H19.7772V28.137C19.7772 28.8937 20.3925 29.5087 21.1515 29.5087H22.8128C23.5713 29.5087 24.1865 28.8926 24.1865 28.137V26.8449C24.6891 26.2978 24.9993 25.5639 24.9993 24.7553V21.4234C25.0004 20.3022 24.3799 18.757 23.4301 17.9239ZM6.70495 14.3426C7.02706 14.0672 7.59012 13.8582 7.87087 13.8582L10.9998 14L12.637 14.3426H16.5499C16.8306 14.3426 17.3518 14.2307 17.6739 14.5061L19.9998 17.3301H12.3339H12.3329H3.70199L6.70495 14.3426ZM0.696962 20.9193C0.696962 20.099 1.32258 19.433 2.09503 19.433C2.86697 19.433 5.3896 20.9527 5.3896 21.7731C5.3896 22.5935 2.86697 22.4035 2.09503 22.4035C1.32258 22.4035 0.696962 21.7402 0.696962 20.9193ZM4.88963 26.3456H4.62335H4.35708L2.77752 26.3482C2.33908 26.2081 2.02989 26.0447 1.81118 25.8691C1.70053 25.7804 1.61574 25.6881 1.54956 25.5963C1.48286 25.5035 1.43426 25.4122 1.40272 25.3209C1.20624 24.751 1.61212 24.2273 1.61212 24.2273H4.30796L6.10518 26.3445L4.88963 26.3456ZM16.2097 26.3466H12.3339H12.3329H8.45719C7.64906 26.3466 6.99294 25.6733 6.99294 24.8444H12.3329H12.3339H17.6739C17.6739 25.6743 17.0178 26.3466 16.2097 26.3466ZM16.5499 23.8192H12.3339H12.3329H8.11698C7.23802 23.8192 6.5245 22.707 6.5245 21.3353H12.3329H12.3339H18.1424C18.1424 22.7075 17.4288 23.8192 16.5499 23.8192ZM23.2647 25.322C23.2326 25.4132 23.184 25.5045 23.1173 25.5968C23.0516 25.6886 22.9668 25.781 22.8557 25.8696C22.6375 26.0452 22.3278 26.2097 21.8893 26.3488L20.3098 26.3461H20.0435H19.7772H18.5606L20.3589 24.2289H23.0542C23.0542 24.2289 23.4606 24.751 23.2647 25.322ZM22.5718 22.4035C21.8004 22.4035 19.2778 22.5924 19.2778 21.7731C19.2778 20.9538 21.8004 19.433 22.5718 19.433C23.3443 19.433 23.9699 20.099 23.9699 20.9193C23.9699 21.7391 23.3443 22.4035 22.5718 22.4035Z" fill="#410F9E"/>
<path d="M23.4301 17.9239C23.413 17.9037 23.3986 17.8841 23.3784 17.8645L22.4907 16.9852C23.2269 16.8138 24.0195 16.1808 24.0195 15.5313C24.0195 14.7746 22.9963 14.5061 22.123 14.5061C21.2099 14.5061 21.104 15.1481 21.0931 15.6018L18.8026 13.3355C18.3373 12.8627 17.4547 12.4907 16.795 12.4907H12.3339H12.3329H7.87087C7.21165 12.4907 6.32958 12.8627 5.86373 13.3355L3.57376 15.6018C3.56187 15.1481 3.45588 14.5061 2.54382 14.5061C1.66951 14.5061 0.646809 14.7746 0.646809 15.5313C0.646809 16.1808 1.43995 16.8138 2.17621 16.9852L1.28845 17.8645C1.26829 17.8841 1.25433 17.9037 1.23675 17.9239C0.28695 18.757 -0.333496 20.3022 -0.333496 21.4234V24.7553C-0.333496 25.5639 -0.022756 26.2978 0.479288 26.8449V28.137C0.479288 28.8926 1.0956 29.5087 1.85358 29.5087H3.51534C4.27332 29.5087 4.88911 28.8937 4.88911 28.137V27.8064H12.3329H12.3339H19.7772V28.137C19.7772 28.8937 20.3925 29.5087 21.1515 29.5087H22.8128C23.5713 29.5087 24.1865 28.8926 24.1865 28.137V26.8449C24.6891 26.2978 24.9993 25.5639 24.9993 24.7553V21.4234C25.0004 20.3022 24.3799 18.757 23.4301 17.9239ZM6.70495 14.3426C7.02706 14.0672 7.59012 13.8582 7.87087 13.8582L10.9998 14L12.637 14.3426H16.5499C16.8306 14.3426 17.3518 14.2307 17.6739 14.5061L19.9998 17.3301H12.3339H12.3329H3.70199L6.70495 14.3426ZM0.696962 20.9193C0.696962 20.099 1.32258 19.433 2.09503 19.433C2.86697 19.433 5.3896 20.9527 5.3896 21.7731C5.3896 22.5935 2.86697 22.4035 2.09503 22.4035C1.32258 22.4035 0.696962 21.7402 0.696962 20.9193ZM4.88963 26.3456H4.62335H4.35708L2.77752 26.3482C2.33908 26.2081 2.02989 26.0447 1.81118 25.8691C1.70053 25.7804 1.61574 25.6881 1.54956 25.5963C1.48286 25.5035 1.43426 25.4122 1.40272 25.3209C1.20624 24.751 1.61212 24.2273 1.61212 24.2273H4.30796L6.10518 26.3445L4.88963 26.3456ZM16.2097 26.3466H12.3339H12.3329H8.45719C7.64906 26.3466 6.99294 25.6733 6.99294 24.8444H12.3329H12.3339H17.6739C17.6739 25.6743 17.0178 26.3466 16.2097 26.3466ZM16.5499 23.8192H12.3339H12.3329H8.11698C7.23802 23.8192 6.5245 22.707 6.5245 21.3353H12.3329H12.3339H18.1424C18.1424 22.7075 17.4288 23.8192 16.5499 23.8192ZM23.2647 25.322C23.2326 25.4132 23.184 25.5045 23.1173 25.5968C23.0516 25.6886 22.9668 25.781 22.8557 25.8696C22.6375 26.0452 22.3278 26.2097 21.8893 26.3488L20.3098 26.3461H20.0435H19.7772H18.5606L20.3589 24.2289H23.0542C23.0542 24.2289 23.4606 24.751 23.2647 25.322ZM22.5718 22.4035C21.8004 22.4035 19.2778 22.5924 19.2778 21.7731C19.2778 20.9538 21.8004 19.433 22.5718 19.433C23.3443 19.433 23.9699 20.099 23.9699 20.9193C23.9699 21.7391 23.3443 22.4035 22.5718 22.4035Z" fill="#453888"/>
<path d="M23.4301 17.9239C23.413 17.9037 23.3986 17.8841 23.3784 17.8645L22.4907 16.9852C23.2269 16.8138 24.0195 16.1808 24.0195 15.5313C24.0195 14.7746 22.9963 14.5061 22.123 14.5061C21.2099 14.5061 21.104 15.1481 21.0931 15.6018L18.8026 13.3355C18.3373 12.8627 17.4547 12.4907 16.795 12.4907H12.3339H12.3329H7.87087C7.21165 12.4907 6.32958 12.8627 5.86373 13.3355L3.57376 15.6018C3.56187 15.1481 3.45588 14.5061 2.54382 14.5061C1.66951 14.5061 0.646809 14.7746 0.646809 15.5313C0.646809 16.1808 1.43995 16.8138 2.17621 16.9852L1.28845 17.8645C1.26829 17.8841 1.25433 17.9037 1.23675 17.9239C0.28695 18.757 -0.333496 20.3022 -0.333496 21.4234V24.7553C-0.333496 25.5639 -0.022756 26.2978 0.479288 26.8449V28.137C0.479288 28.8926 1.0956 29.5087 1.85358 29.5087H3.51534C4.27332 29.5087 4.88911 28.8937 4.88911 28.137V27.8064H12.3329H12.3339H19.7772V28.137C19.7772 28.8937 20.3925 29.5087 21.1515 29.5087H22.8128C23.5713 29.5087 24.1865 28.8926 24.1865 28.137V26.8449C24.6891 26.2978 24.9993 25.5639 24.9993 24.7553V21.4234C25.0004 20.3022 24.3799 18.757 23.4301 17.9239ZM6.70495 14.3426C7.02706 14.0672 7.59012 13.8582 7.87087 13.8582L10.9998 14L12.637 14.3426H16.5499C16.8306 14.3426 17.3518 14.2307 17.6739 14.5061L19.9998 17.3301H12.3339H12.3329H3.70199L6.70495 14.3426ZM0.696962 20.9193C0.696962 20.099 1.32258 19.433 2.09503 19.433C2.86697 19.433 5.3896 20.9527 5.3896 21.7731C5.3896 22.5935 2.86697 22.4035 2.09503 22.4035C1.32258 22.4035 0.696962 21.7402 0.696962 20.9193ZM4.88963 26.3456H4.62335H4.35708L2.77752 26.3482C2.33908 26.2081 2.02989 26.0447 1.81118 25.8691C1.70053 25.7804 1.61574 25.6881 1.54956 25.5963C1.48286 25.5035 1.43426 25.4122 1.40272 25.3209C1.20624 24.751 1.61212 24.2273 1.61212 24.2273H4.30796L6.10518 26.3445L4.88963 26.3456ZM16.2097 26.3466H12.3339H12.3329H8.45719C7.64906 26.3466 6.99294 25.6733 6.99294 24.8444H12.3329H12.3339H17.6739C17.6739 25.6743 17.0178 26.3466 16.2097 26.3466ZM16.5499 23.8192H12.3339H12.3329H8.11698C7.23802 23.8192 6.5245 22.707 6.5245 21.3353H12.3329H12.3339H18.1424C18.1424 22.7075 17.4288 23.8192 16.5499 23.8192ZM23.2647 25.322C23.2326 25.4132 23.184 25.5045 23.1173 25.5968C23.0516 25.6886 22.9668 25.781 22.8557 25.8696C22.6375 26.0452 22.3278 26.2097 21.8893 26.3488L20.3098 26.3461H20.0435H19.7772H18.5606L20.3589 24.2289H23.0542C23.0542 24.2289 23.4606 24.751 23.2647 25.322ZM22.5718 22.4035C21.8004 22.4035 19.2778 22.5924 19.2778 21.7731C19.2778 20.9538 21.8004 19.433 22.5718 19.433C23.3443 19.433 23.9699 20.099 23.9699 20.9193C23.9699 21.7391 23.3443 22.4035 22.5718 22.4035Z" fill="#5946D7"/>
<path d="M16.2097 26.3466H12.3339H12.3329H8.45719C7.64906 26.3466 6.99294 25.6733 6.99294 24.8444H12.3329H12.3339H17.6739C17.6739 25.6743 17.0178 26.3466 16.2097 26.3466Z" fill="#2E1066"/>
<path d="M16.2097 26.3466H12.3339H12.3329H8.45719C7.64906 26.3466 6.99294 25.6733 6.99294 24.8444H12.3329H12.3339H17.6739C17.6739 25.6743 17.0178 26.3466 16.2097 26.3466Z" fill="#410F9E"/>
<path d="M16.2097 26.3466H12.3339H12.3329H8.45719C7.64906 26.3466 6.99294 25.6733 6.99294 24.8444H12.3329H12.3339H17.6739C17.6739 25.6743 17.0178 26.3466 16.2097 26.3466Z" fill="#453888"/>
<path d="M16.2097 26.3466H12.3339H12.3329H8.45719C7.64906 26.3466 6.99294 25.6733 6.99294 24.8444H12.3329H12.3339H17.6739C17.6739 25.6743 17.0178 26.3466 16.2097 26.3466Z" fill="#5946D7"/>
</g>
<circle cx="20" cy="21" r="11.5" stroke="white" stroke-width="3"/>
</g>
</g>
<defs>
<clipPath id="clip0_229_10">
<rect width="40" height="40" fill="white" transform="translate(0 1)"/>
</clipPath>
<clipPath id="clip1_229_10">
<rect width="40" height="40" fill="white" transform="translate(0 1)"/>
</clipPath>
<clipPath id="clip2_229_10">
<rect width="40" height="40" fill="white" transform="translate(0 1)"/>
</clipPath>
<clipPath id="clip3_229_10">
<rect width="19" height="26" fill="white" transform="translate(6 8)"/>
</clipPath>
</defs>
</svg>
