<svg width="74" height="36" viewBox="0 0 74 36" fill="none" xmlns="http://www.w3.org/2000/svg">
<rect width="74" height="36" rx="4" fill="#F4F6F9" fill-opacity="0.15"/>
<g clip-path="url(#clip0_117_36707)">
<path fill-rule="evenodd" clip-rule="evenodd" d="M15.2336 10.8279C15.7099 10.8251 17.1255 10.697 17.7251 12.7291C18.129 14.0979 18.7724 16.3401 19.6553 19.4557H20.0148C20.9617 16.171 21.6122 13.9288 21.9662 12.7291C22.572 10.6759 24.0867 10.828 24.6926 10.828L29.3669 10.828V25.4285H24.6027V16.8242H24.2832L21.6273 25.4285H18.0428L15.387 16.8178H15.0675V25.4285H10.3032V10.828L15.2336 10.8279ZM36.2084 10.828V19.4388H36.5884L39.819 12.3582C40.4461 10.9491 41.7828 10.828 41.7828 10.828H46.3931V25.4286H41.5294V16.8178H41.1493L37.9821 23.8984C37.3549 25.3011 35.955 25.4286 35.955 25.4286H31.3446V10.828H36.2084ZM63.2046 17.7663C62.5261 19.6968 60.3955 21.0793 58.0367 21.0793H52.936V25.4286H48.3108V17.7663H63.2046Z" fill="white"/>
<path fill-rule="evenodd" clip-rule="evenodd" d="M58.2594 10.8269H48.0679C48.3104 14.0775 51.0983 16.8602 53.9843 16.8602H63.5255C64.0761 14.1586 62.1807 10.8269 58.2594 10.8269Z" fill="white"/>
</g>
<defs>
<clipPath id="clip0_117_36707">
<rect width="54" height="16" fill="white" transform="translate(10 10)"/>
</clipPath>
</defs>
</svg>
