<svg width="67" height="36" viewBox="0 0 67 36" fill="none" xmlns="http://www.w3.org/2000/svg">
<rect width="67" height="36" rx="4" fill="#F4F6F9" fill-opacity="0.15"/>
<g clip-path="url(#clip0_117_36695)">
<path d="M30.2023 25.7305H26.4258L28.7878 11.0903H32.5642L30.2023 25.7305Z" fill="white"/>
<path d="M43.8926 11.448C43.1477 11.1518 41.9662 10.8247 40.5054 10.8247C36.7759 10.8247 34.1496 12.8182 34.1335 15.6682C34.1025 17.7709 36.0139 18.9388 37.4434 19.64C38.9044 20.3564 39.401 20.824 39.401 21.4626C39.3862 22.4433 38.2205 22.8955 37.1332 22.8955C35.6253 22.8955 34.8175 22.6624 33.5897 22.1168L33.0925 21.8828L32.564 25.1692C33.4498 25.5737 35.0817 25.9327 36.7759 25.9483C40.7385 25.9483 43.3183 23.9857 43.3489 20.9486C43.3639 19.282 42.3547 18.005 40.1788 16.9615C38.858 16.2917 38.049 15.84 38.049 15.1546C38.0646 14.5315 38.7332 13.8933 40.2243 13.8933C41.452 13.8621 42.3541 14.1579 43.0374 14.4539L43.379 14.6093L43.8926 11.448Z" fill="white"/>
<path d="M48.9113 20.544C49.2223 19.7029 50.4191 16.4478 50.4191 16.4478C50.4034 16.479 50.7294 15.5912 50.9159 15.0462L51.1798 16.3076C51.1798 16.3076 51.895 19.812 52.0503 20.544C51.4602 20.544 49.6572 20.544 48.9113 20.544ZM53.5729 11.0903H50.6518C49.751 11.0903 49.0666 11.3549 48.6779 12.305L43.0684 25.7302H47.031C47.031 25.7302 47.6834 23.9233 47.8236 23.5341C48.2583 23.5341 52.1131 23.5341 52.6724 23.5341C52.7808 24.0481 53.123 25.7302 53.123 25.7302H56.6197L53.5729 11.0903Z" fill="white"/>
<path d="M23.2712 11.0903L19.5727 21.0735L19.1685 19.0488C18.4848 16.7125 16.3404 14.1743 13.9473 12.9122L17.3349 25.7149H21.3285L27.2646 11.0903H23.2712Z" fill="white"/>
<path d="M16.1382 11.0903H10.0622L10 11.3861C14.7397 12.601 17.8788 15.5295 19.1685 19.0494L17.8476 12.321C17.6301 11.3859 16.9618 11.1212 16.1382 11.0903Z" fill="#B1B4B9"/>
</g>
<defs>
<clipPath id="clip0_117_36695">
<rect width="47" height="16" fill="white" transform="translate(10 10)"/>
</clipPath>
</defs>
</svg>
