<svg width="47" height="36" viewBox="0 0 47 36" fill="none" xmlns="http://www.w3.org/2000/svg">
<rect width="47" height="36" rx="4" fill="#F4F6F9" fill-opacity="0.15"/>
<g clip-path="url(#clip0_117_36702)">
<path d="M28.7911 25.8159H20.8296V10.9587H28.7911V25.8159Z" fill="#B1B4B9"/>
<path d="M20.4332 18C20.4332 15.4483 21.6222 13.1753 23.4738 11.7105C22.1197 10.6393 20.4109 10 18.5538 10C14.1572 10 10.5933 13.5817 10.5933 18C10.5933 22.4184 14.1572 26 18.5538 26C20.4109 26 22.1197 25.3607 23.4738 24.2895C21.6222 22.8247 20.4332 20.5517 20.4332 18Z" fill="#F5F3F0"/>
<path d="M36.3473 18C36.3473 22.4184 32.7833 26 28.3867 26C26.5296 26 24.8208 25.3607 23.4663 24.2895C25.3184 22.8247 26.5073 20.5517 26.5073 18C26.5073 15.4483 25.3184 13.1753 23.4663 11.7105C24.8208 10.6393 26.5296 10 28.3867 10C32.7833 10 36.3473 13.5817 36.3473 18Z" fill="#7A7A7E"/>
</g>
<defs>
<clipPath id="clip0_117_36702">
<rect width="27" height="16" fill="white" transform="translate(10 10)"/>
</clipPath>
</defs>
</svg>
