<svg width="24" height="24" viewBox="0 0 24 24" fill="none" xmlns="http://www.w3.org/2000/svg">
<path fill-rule="evenodd" clip-rule="evenodd" d="M18.965 16.61L17.792 15.437C17.206 14.851 16.256 14.851 15.671 15.437L14.749 16.359C14.543 16.565 14.231 16.634 13.965 16.517C12.629 15.932 11.309 15.045 10.132 13.868C8.96002 12.696 8.07602 11.382 7.49002 10.051C7.36802 9.77597 7.43902 9.45297 7.65202 9.23997L8.47802 8.41397C9.14902 7.74297 9.14902 6.79397 8.56302 6.20797L7.39002 5.03497C6.60902 4.25397 5.34302 4.25397 4.56202 5.03497L3.91002 5.68597C3.16902 6.42697 2.86002 7.49597 3.06002 8.55597C3.55402 11.169 5.07202 14.03 7.52102 16.479C9.97002 18.928 12.831 20.446 15.444 20.94C16.504 21.14 17.573 20.831 18.314 20.09L18.965 19.439C19.746 18.658 19.746 17.392 18.965 16.61V16.61Z" stroke="#2E1066" stroke-width="1.5" stroke-linecap="round" stroke-linejoin="round"/>
<path fill-rule="evenodd" clip-rule="evenodd" d="M18.965 16.61L17.792 15.437C17.206 14.851 16.256 14.851 15.671 15.437L14.749 16.359C14.543 16.565 14.231 16.634 13.965 16.517C12.629 15.932 11.309 15.045 10.132 13.868C8.96002 12.696 8.07602 11.382 7.49002 10.051C7.36802 9.77597 7.43902 9.45297 7.65202 9.23997L8.47802 8.41397C9.14902 7.74297 9.14902 6.79397 8.56302 6.20797L7.39002 5.03497C6.60902 4.25397 5.34302 4.25397 4.56202 5.03497L3.91002 5.68597C3.16902 6.42697 2.86002 7.49597 3.06002 8.55597C3.55402 11.169 5.07202 14.03 7.52102 16.479C9.97002 18.928 12.831 20.446 15.444 20.94C16.504 21.14 17.573 20.831 18.314 20.09L18.965 19.439C19.746 18.658 19.746 17.392 18.965 16.61V16.61Z" stroke="#410F9E" stroke-width="1.5" stroke-linecap="round" stroke-linejoin="round"/>
<path fill-rule="evenodd" clip-rule="evenodd" d="M18.965 16.61L17.792 15.437C17.206 14.851 16.256 14.851 15.671 15.437L14.749 16.359C14.543 16.565 14.231 16.634 13.965 16.517C12.629 15.932 11.309 15.045 10.132 13.868C8.96002 12.696 8.07602 11.382 7.49002 10.051C7.36802 9.77597 7.43902 9.45297 7.65202 9.23997L8.47802 8.41397C9.14902 7.74297 9.14902 6.79397 8.56302 6.20797L7.39002 5.03497C6.60902 4.25397 5.34302 4.25397 4.56202 5.03497L3.91002 5.68597C3.16902 6.42697 2.86002 7.49597 3.06002 8.55597C3.55402 11.169 5.07202 14.03 7.52102 16.479C9.97002 18.928 12.831 20.446 15.444 20.94C16.504 21.14 17.573 20.831 18.314 20.09L18.965 19.439C19.746 18.658 19.746 17.392 18.965 16.61V16.61Z" stroke="#453888" stroke-width="1.5" stroke-linecap="round" stroke-linejoin="round"/>
<path fill-rule="evenodd" clip-rule="evenodd" d="M18.965 16.61L17.792 15.437C17.206 14.851 16.256 14.851 15.671 15.437L14.749 16.359C14.543 16.565 14.231 16.634 13.965 16.517C12.629 15.932 11.309 15.045 10.132 13.868C8.96002 12.696 8.07602 11.382 7.49002 10.051C7.36802 9.77597 7.43902 9.45297 7.65202 9.23997L8.47802 8.41397C9.14902 7.74297 9.14902 6.79397 8.56302 6.20797L7.39002 5.03497C6.60902 4.25397 5.34302 4.25397 4.56202 5.03497L3.91002 5.68597C3.16902 6.42697 2.86002 7.49597 3.06002 8.55597C3.55402 11.169 5.07202 14.03 7.52102 16.479C9.97002 18.928 12.831 20.446 15.444 20.94C16.504 21.14 17.573 20.831 18.314 20.09L18.965 19.439C19.746 18.658 19.746 17.392 18.965 16.61V16.61Z" stroke="#5946D7" stroke-width="1.5" stroke-linecap="round" stroke-linejoin="round"/>
<path fill-rule="evenodd" clip-rule="evenodd" d="M18.965 16.61L17.792 15.437C17.206 14.851 16.256 14.851 15.671 15.437L14.749 16.359C14.543 16.565 14.231 16.634 13.965 16.517C12.629 15.932 11.309 15.045 10.132 13.868C8.96002 12.696 8.07602 11.382 7.49002 10.051C7.36802 9.77597 7.43902 9.45297 7.65202 9.23997L8.47802 8.41397C9.14902 7.74297 9.14902 6.79397 8.56302 6.20797L7.39002 5.03497C6.60902 4.25397 5.34302 4.25397 4.56202 5.03497L3.91002 5.68597C3.16902 6.42697 2.86002 7.49597 3.06002 8.55597C3.55402 11.169 5.07202 14.03 7.52102 16.479C9.97002 18.928 12.831 20.446 15.444 20.94C16.504 21.14 17.573 20.831 18.314 20.09L18.965 19.439C19.746 18.658 19.746 17.392 18.965 16.61V16.61Z" stroke="#6B59CC" stroke-width="1.5" stroke-linecap="round" stroke-linejoin="round"/>
<g opacity="0.5">
<path d="M13 6.99099C14.031 6.97699 15.067 7.35899 15.854 8.14599C16.641 8.93299 17.023 9.969 17.009 11M13 2.96399C15.056 2.96399 17.113 3.74899 18.682 5.31799C20.251 6.88699 21.036 8.94399 21.036 11" stroke="#2E1066" stroke-width="1.5" stroke-linecap="round" stroke-linejoin="round"/>
<path d="M13 6.99099C14.031 6.97699 15.067 7.35899 15.854 8.14599C16.641 8.93299 17.023 9.969 17.009 11M13 2.96399C15.056 2.96399 17.113 3.74899 18.682 5.31799C20.251 6.88699 21.036 8.94399 21.036 11" stroke="#410F9E" stroke-width="1.5" stroke-linecap="round" stroke-linejoin="round"/>
<path d="M13 6.99099C14.031 6.97699 15.067 7.35899 15.854 8.14599C16.641 8.93299 17.023 9.969 17.009 11M13 2.96399C15.056 2.96399 17.113 3.74899 18.682 5.31799C20.251 6.88699 21.036 8.94399 21.036 11" stroke="#453888" stroke-width="1.5" stroke-linecap="round" stroke-linejoin="round"/>
<path d="M13 6.99099C14.031 6.97699 15.067 7.35899 15.854 8.14599C16.641 8.93299 17.023 9.969 17.009 11M13 2.96399C15.056 2.96399 17.113 3.74899 18.682 5.31799C20.251 6.88699 21.036 8.94399 21.036 11" stroke="#5946D7" stroke-width="1.5" stroke-linecap="round" stroke-linejoin="round"/>
<path d="M13 6.99099C14.031 6.97699 15.067 7.35899 15.854 8.14599C16.641 8.93299 17.023 9.969 17.009 11M13 2.96399C15.056 2.96399 17.113 3.74899 18.682 5.31799C20.251 6.88699 21.036 8.94399 21.036 11" stroke="#6B59CC" stroke-width="1.5" stroke-linecap="round" stroke-linejoin="round"/>
</g>
</svg>
