<svg width="16" height="16" viewBox="0 0 16 16" fill="none" xmlns="http://www.w3.org/2000/svg">
<path fill-rule="evenodd" clip-rule="evenodd" d="M2.16683 8.83342C1.70641 8.83342 1.3335 8.4605 1.3335 8.00008C1.3335 7.53966 1.70641 7.16675 2.16683 7.16675C2.62725 7.16675 3.00016 7.53966 3.00016 8.00008C3.00016 8.4605 2.62725 8.83342 2.16683 8.83342Z" fill="white" stroke="white" stroke-width="1.5" stroke-linecap="round" stroke-linejoin="round"/>
<path fill-rule="evenodd" clip-rule="evenodd" d="M8.00033 8.83342C7.53991 8.83342 7.16699 8.4605 7.16699 8.00008C7.16699 7.53966 7.53991 7.16675 8.00033 7.16675C8.46074 7.16675 8.83366 7.53966 8.83366 8.00008C8.83366 8.4605 8.46074 8.83342 8.00033 8.83342Z" fill="white" stroke="white" stroke-width="1.5" stroke-linecap="round" stroke-linejoin="round"/>
<path fill-rule="evenodd" clip-rule="evenodd" d="M13.8333 8.83342C13.3729 8.83342 13 8.4605 13 8.00008C13 7.53966 13.3729 7.16675 13.8333 7.16675C14.2937 7.16675 14.6667 7.53966 14.6667 8.00008C14.6667 8.4605 14.2937 8.83342 13.8333 8.83342Z" fill="white" stroke="white" stroke-width="1.5" stroke-linecap="round" stroke-linejoin="round"/>
<path fill-rule="evenodd" clip-rule="evenodd" d="M2.16683 14.6667C1.70641 14.6667 1.3335 14.2937 1.3335 13.8333C1.3335 13.3729 1.70641 13 2.16683 13C2.62725 13 3.00016 13.3729 3.00016 13.8333C3.00016 14.2937 2.62725 14.6667 2.16683 14.6667Z" fill="white" stroke="white" stroke-width="1.5" stroke-linecap="round" stroke-linejoin="round"/>
<path fill-rule="evenodd" clip-rule="evenodd" d="M8.00033 14.6667C7.53991 14.6667 7.16699 14.2937 7.16699 13.8333C7.16699 13.3729 7.53991 13 8.00033 13C8.46074 13 8.83366 13.3729 8.83366 13.8333C8.83366 14.2937 8.46074 14.6667 8.00033 14.6667Z" fill="white" stroke="white" stroke-width="1.5" stroke-linecap="round" stroke-linejoin="round"/>
<path fill-rule="evenodd" clip-rule="evenodd" d="M13.8333 14.6667C13.3729 14.6667 13 14.2937 13 13.8333C13 13.3729 13.3729 13 13.8333 13C14.2937 13 14.6667 13.3729 14.6667 13.8333C14.6667 14.2937 14.2937 14.6667 13.8333 14.6667Z" fill="white" stroke="white" stroke-width="1.5" stroke-linecap="round" stroke-linejoin="round"/>
<path fill-rule="evenodd" clip-rule="evenodd" d="M2.16683 3.00004C1.70641 3.00004 1.3335 2.62712 1.3335 2.16671C1.3335 1.70629 1.70641 1.33337 2.16683 1.33337C2.62725 1.33337 3.00016 1.70629 3.00016 2.16671C3.00016 2.62712 2.62725 3.00004 2.16683 3.00004Z" fill="white" stroke="white" stroke-width="1.5" stroke-linecap="round" stroke-linejoin="round"/>
<path fill-rule="evenodd" clip-rule="evenodd" d="M8.00033 3.00004C7.53991 3.00004 7.16699 2.62712 7.16699 2.16671C7.16699 1.70629 7.53991 1.33337 8.00033 1.33337C8.46074 1.33337 8.83366 1.70629 8.83366 2.16671C8.83366 2.62712 8.46074 3.00004 8.00033 3.00004Z" fill="white" stroke="white" stroke-width="1.5" stroke-linecap="round" stroke-linejoin="round"/>
<path fill-rule="evenodd" clip-rule="evenodd" d="M13.8333 3.00004C13.3729 3.00004 13 2.62712 13 2.16671C13 1.70629 13.3729 1.33337 13.8333 1.33337C14.2937 1.33337 14.6667 1.70629 14.6667 2.16671C14.6667 2.62712 14.2937 3.00004 13.8333 3.00004Z" fill="white" stroke="white" stroke-width="1.5" stroke-linecap="round" stroke-linejoin="round"/>
</svg>
